<svg width="516" height="237" viewBox="0 0 516 237" fill="none" xmlns="http://www.w3.org/2000/svg">
<g clip-path="url(#clip0_0_1)">
<path d="M277.456 56.3761H13.5444C9.95347 56.3724 6.51075 55.0538 3.97155 52.7096C1.43236 50.3654 0.00405586 47.187 0 43.8718V32.5043C0.00405586 29.1891 1.43236 26.0108 3.97155 23.6666C6.51075 21.3224 9.95347 20.0037 13.5444 20H277.456C281.047 20.0037 284.489 21.3224 287.028 23.6666C289.568 26.0108 290.996 29.1891 291 32.5043V43.8718C290.996 47.187 289.568 50.3654 287.028 52.7096C284.489 55.0538 281.047 56.3724 277.456 56.3761V56.3761ZM13.5444 20.7578C10.1711 20.7614 6.93704 22.0001 4.55174 24.2022C2.16644 26.4043 0.824693 29.39 0.82087 32.5043V43.8718C0.824693 46.9861 2.16644 49.9718 4.55174 52.1739C6.93704 54.376 10.1711 55.6147 13.5444 55.6183H277.456C280.829 55.6147 284.063 54.376 286.448 52.1739C288.834 49.9718 290.175 46.9861 290.179 43.8718V32.5043C290.175 29.39 288.834 26.4043 286.448 24.2022C284.063 22.0001 280.829 20.7614 277.456 20.7578H13.5444Z" fill="#3F3D56"/>
<path d="M208.912 30.9886H33.6557C29.3488 30.9886 25.8574 34.2119 25.8574 38.1881V38.1881C25.8574 42.1642 29.3488 45.3875 33.6557 45.3875H208.912C213.219 45.3875 216.711 42.1642 216.711 38.1881C216.711 34.2119 213.219 30.9886 208.912 30.9886Z" fill="white"/>
<path d="M231.897 94.1323H56.6401C52.3332 94.1323 48.8418 97.3556 48.8418 101.332V101.332C48.8418 105.308 52.3332 108.531 56.6401 108.531H231.897C236.204 108.531 239.695 105.308 239.695 101.332C239.695 97.3556 236.204 94.1323 231.897 94.1323Z" fill="#303F9F"/>
<path d="M231.897 139.914H56.6401C52.3332 139.914 48.8418 143.137 48.8418 147.113V147.113C48.8418 151.089 52.3332 154.313 56.6401 154.313H231.897C236.204 154.313 239.695 151.089 239.695 147.113C239.695 143.137 236.204 139.914 231.897 139.914Z" fill="white"/>
<path d="M231.897 185.695H56.6401C52.3332 185.695 48.8418 188.918 48.8418 192.894V192.894C48.8418 196.871 52.3332 200.094 56.6401 200.094H231.897C236.204 200.094 239.695 196.871 239.695 192.894C239.695 188.918 236.204 185.695 231.897 185.695Z" fill="white"/>
<path d="M265.345 45.9659C265.158 46.2123 264.873 46.38 264.552 46.4322C264.231 46.4845 263.901 46.4169 263.634 46.2444L256.933 41.9398C256.667 41.7673 256.485 41.504 256.428 41.2078C256.372 40.9117 256.445 40.6069 256.632 40.3605C256.819 40.1142 257.104 39.9464 257.425 39.8942C257.745 39.842 258.076 39.9095 258.342 40.082L265.043 44.3866C265.31 44.5591 265.492 44.8224 265.549 45.1186C265.605 45.4148 265.532 45.7196 265.345 45.9659Z" fill="#303F9F"/>
<path d="M257.738 41.0752C256.748 42.3794 255.363 43.3835 253.755 43.9606C252.148 44.5376 250.391 44.6617 248.708 44.3171C247.024 43.9726 245.489 43.1748 244.296 42.0247C243.104 40.8746 242.307 39.4239 242.008 37.856C241.708 36.2881 241.919 34.6734 242.614 33.2161C243.308 31.7588 244.455 30.5244 245.91 29.6689C247.364 28.8135 249.061 28.3754 250.785 28.4101C252.509 28.4448 254.183 28.9508 255.596 29.864C257.488 31.09 258.776 32.959 259.178 35.0608C259.579 37.1626 259.061 39.3256 257.738 41.0752ZM245.238 32.9952C244.496 33.9734 244.085 35.1326 244.057 36.3264C244.029 37.5202 244.385 38.6949 245.08 39.702C245.775 40.7091 246.777 41.5033 247.961 41.9842C249.145 42.4651 250.457 42.611 251.731 42.4037C253.004 42.1963 254.183 41.6449 255.117 40.8192C256.052 39.9935 256.7 38.9305 256.98 37.7647C257.259 36.5989 257.159 35.3827 256.69 34.2698C256.221 33.1569 255.405 32.1974 254.346 31.5125C252.924 30.5959 251.167 30.2372 249.46 30.5152C247.752 30.7931 246.234 31.6851 245.238 32.9952V32.9952Z" fill="#303F9F"/>
<path d="M269.862 115.4H21.1375C21.0286 115.4 20.9242 115.36 20.8473 115.289C20.7703 115.218 20.7271 115.121 20.7271 115.021C20.7271 114.92 20.7703 114.824 20.8473 114.753C20.9242 114.682 21.0286 114.642 21.1375 114.642H269.862C269.971 114.642 270.076 114.682 270.153 114.753C270.23 114.824 270.273 114.92 270.273 115.021C270.273 115.121 270.23 115.218 270.153 115.289C270.076 115.36 269.971 115.4 269.862 115.4Z" fill="#3F3D56"/>
<path d="M269.862 161.2H21.1375C21.0286 161.2 20.9242 161.16 20.8473 161.089C20.7703 161.018 20.7271 160.922 20.7271 160.821C20.7271 160.721 20.7703 160.624 20.8473 160.553C20.9242 160.482 21.0286 160.442 21.1375 160.442H269.862C269.971 160.442 270.076 160.482 270.153 160.553C270.23 160.624 270.273 160.721 270.273 160.821C270.273 160.922 270.23 161.018 270.153 161.089C270.076 161.16 269.971 161.2 269.862 161.2V161.2Z" fill="#3F3D56"/>
<path d="M269.862 207H21.1375C21.0286 207 20.9242 206.96 20.8473 206.889C20.7703 206.818 20.7271 206.722 20.7271 206.621C20.7271 206.521 20.7703 206.424 20.8473 206.353C20.9242 206.282 21.0286 206.242 21.1375 206.242H269.862C269.971 206.242 270.076 206.282 270.153 206.353C270.23 206.424 270.273 206.521 270.273 206.621C270.273 206.722 270.23 206.818 270.153 206.889C270.076 206.96 269.971 207 269.862 207V207Z" fill="#3F3D56"/>
</g>
<g clip-path="url(#clip1_0_1)">
<path d="M469.982 218.822C481.945 206.959 481.945 187.725 469.982 175.861C458.019 163.998 438.624 163.998 426.661 175.861C414.698 187.725 414.698 206.959 426.661 218.822C438.624 230.685 458.019 230.685 469.982 218.822Z" fill="#2F2E41"/>
<path d="M440.435 199.228C446.081 197.989 449.645 192.446 448.395 186.848C447.145 181.249 441.556 177.715 435.91 178.954C430.265 180.194 426.701 185.737 427.951 191.335C429.2 196.934 434.79 200.468 440.435 199.228Z" fill="white"/>
<path d="M434.686 189.789C436.568 189.376 437.756 187.528 437.339 185.662C436.922 183.796 435.059 182.618 433.177 183.031C431.296 183.444 430.108 185.292 430.524 187.158C430.941 189.024 432.804 190.202 434.686 189.789Z" fill="#3F3D56"/>
<path d="M464.088 203.386C469.734 202.147 473.297 196.604 472.048 191.005C470.798 185.407 465.208 181.873 459.563 183.112C453.917 184.351 450.354 189.895 451.603 195.493C452.853 201.092 458.443 204.625 464.088 203.386Z" fill="white"/>
<path d="M458.339 193.947C460.221 193.534 461.409 191.686 460.992 189.82C460.576 187.954 458.713 186.776 456.831 187.189C454.949 187.602 453.761 189.45 454.178 191.316C454.594 193.182 456.457 194.36 458.339 193.947Z" fill="#3F3D56"/>
<path d="M447.111 176.805C434.583 176.782 425.789 174.563 425.81 163.307C425.831 152.052 436.004 142.946 448.531 142.969C461.059 142.992 471.198 152.135 471.177 163.39C471.156 174.646 459.639 176.828 447.111 176.805Z" fill="#303F9F"/>
<path d="M496.334 202.419C492.741 214.782 482.248 223.436 471.303 230.787C469.775 231.814 468.246 232.817 466.717 233.796C466.707 233.8 466.696 233.81 466.686 233.815C466.612 233.862 466.538 233.908 466.47 233.956C466.154 234.157 465.838 234.359 465.525 234.559L465.697 234.635C465.697 234.635 465.866 234.724 465.681 234.65C465.626 234.627 465.569 234.606 465.514 234.583C459.156 232.04 452.684 229.31 447.812 224.546C442.757 219.599 439.803 211.839 442.54 205.34C442.9 204.489 443.354 203.68 443.895 202.929C444.117 202.614 444.356 202.312 444.605 202.016C446.115 200.189 448.088 198.793 450.322 197.973C452.556 197.153 454.97 196.937 457.316 197.349C459.662 197.76 461.855 198.784 463.669 200.315C465.484 201.846 466.854 203.828 467.64 206.058C468.444 198.633 462.271 192.414 456.33 187.826C450.386 183.239 443.633 178.245 442.484 170.861C441.842 166.753 443.282 162.772 445.906 159.577C445.988 159.48 446.069 159.383 446.152 159.288C449.347 155.566 453.839 153.176 458.733 152.595C467.847 151.656 476.699 156.44 483.32 162.724C493.977 172.834 500.419 188.363 496.334 202.419Z" fill="#B1BCFF"/>
<path d="M479.204 186.25C480.953 188.948 482.296 191.885 483.19 194.968C483.946 197.724 484.283 200.576 484.188 203.431C483.945 209.304 482.282 215.033 479.34 220.137C477.124 224.008 474.424 227.587 471.303 230.787C469.775 231.814 468.246 232.817 466.717 233.796C466.707 233.8 466.696 233.81 466.686 233.815C466.612 233.862 466.538 233.909 466.47 233.956C466.154 234.157 465.838 234.359 465.525 234.559C465.525 234.559 465.866 234.724 465.682 234.65C465.627 234.627 465.569 234.606 465.514 234.583C466.084 229.95 465.526 225.249 463.886 220.874C462.246 216.498 459.573 212.577 456.09 209.437C452.599 206.345 448.42 204.115 443.895 202.929C444.117 202.614 444.356 202.312 444.605 202.016C446.353 202.502 448.054 203.141 449.688 203.924C455.531 206.706 460.315 211.28 463.332 216.968C466.04 222.134 467.205 227.958 466.691 233.757C466.952 233.522 467.214 233.282 467.468 233.045C472.299 228.578 476.591 223.45 479.495 217.532C482.015 212.521 483.253 206.972 483.101 201.375C482.864 195.271 480.412 189.617 476.861 184.696C472.97 179.445 468.372 174.746 463.197 170.731C457.982 166.588 452.274 163.094 446.203 160.326C446.066 160.263 445.959 160.15 445.904 160.01C445.849 159.871 445.85 159.715 445.907 159.577C445.947 159.452 446.036 159.348 446.153 159.288C446.213 159.262 446.278 159.25 446.344 159.253C446.409 159.256 446.473 159.273 446.531 159.304C447.281 159.646 448.025 159.993 448.764 160.355C454.914 163.37 460.663 167.131 465.879 171.551C470.917 175.81 475.66 180.677 479.204 186.25Z" fill="white"/>
<path d="M196.431 236.682C200.715 236.682 204.187 235.391 204.187 233.798C204.187 232.205 200.715 230.914 196.431 230.914C192.148 230.914 188.676 232.205 188.676 233.798C188.676 235.391 192.148 236.682 196.431 236.682Z" fill="#2F2E41"/>
<path d="M215.044 236.297C219.327 236.297 222.799 235.006 222.799 233.413C222.799 231.821 219.327 230.529 215.044 230.529C210.761 230.529 207.289 231.821 207.289 233.413C207.289 235.006 210.761 236.297 215.044 236.297Z" fill="#2F2E41"/>
<path d="M239.753 187.823C247.081 183.634 251.947 178.388 250.621 176.106C249.294 173.825 242.278 175.372 234.95 179.561C227.621 183.751 222.755 188.997 224.082 191.278C225.408 193.56 232.424 192.013 239.753 187.823Z" fill="#2F2E41"/>
<path d="M232.873 198.096C235.583 181.535 224.242 165.932 207.542 163.244C190.843 160.557 175.108 171.803 172.398 188.364C169.688 204.925 181.029 220.528 197.729 223.216C214.428 225.903 230.163 214.657 232.873 198.096Z" fill="#2F2E41"/>
<path d="M197.982 217.071H188.676V233.606H197.982V217.071Z" fill="#2F2E41"/>
<path d="M216.595 217.071H207.289V233.606H216.595V217.071Z" fill="#2F2E41"/>
<path d="M214.678 195.396C220.46 195.396 225.147 190.748 225.147 185.014C225.147 179.28 220.46 174.632 214.678 174.632C208.895 174.632 204.208 179.28 204.208 185.014C204.208 190.748 208.895 195.396 214.678 195.396Z" fill="white"/>
<path d="M214.677 188.475C216.605 188.475 218.167 186.925 218.167 185.014C218.167 183.103 216.605 181.553 214.677 181.553C212.75 181.553 211.188 183.103 211.188 185.014C211.188 186.925 212.75 188.475 214.677 188.475Z" fill="#3F3D56"/>
<path d="M193.175 199.554C198.957 199.554 203.644 194.906 203.644 189.172C203.644 183.438 198.957 178.789 193.175 178.789C187.392 178.789 182.705 183.438 182.705 189.172C182.705 194.906 187.392 199.554 193.175 199.554Z" fill="white"/>
<path d="M193.174 192.632C195.102 192.632 196.664 191.083 196.664 189.172C196.664 187.26 195.102 185.711 193.174 185.711C191.247 185.711 189.685 187.26 189.685 189.172C189.685 191.083 191.247 192.632 193.174 192.632Z" fill="#3F3D56"/>
<path d="M172.921 164.98C170.447 153.994 178.354 142.894 190.581 140.187C202.808 137.48 214.725 144.19 217.198 155.175C219.672 166.16 211.568 170.212 199.341 172.919C187.115 175.626 175.394 175.965 172.921 164.98Z" fill="#B1BCFF"/>
<path d="M181.972 185.643C183.11 183.264 177.836 178.421 170.193 174.826C162.55 171.232 155.432 170.246 154.294 172.626C153.156 175.005 158.429 179.848 166.072 183.443C173.715 187.038 180.834 188.023 181.972 185.643Z" fill="#2F2E41"/>
<path d="M187.589 204.189C187.589 207.162 195.309 213.033 203.875 213.033C212.441 213.033 220.473 204.663 220.473 201.69C220.473 198.716 212.441 202.266 203.875 202.266C195.309 202.266 187.589 201.216 187.589 204.189Z" fill="white"/>
<path d="M309.451 236.682C313.734 236.682 317.206 235.391 317.206 233.798C317.206 232.205 313.734 230.914 309.451 230.914C305.167 230.914 301.695 232.205 301.695 233.798C301.695 235.391 305.167 236.682 309.451 236.682Z" fill="#2F2E41"/>
<path d="M290.838 236.297C295.121 236.297 298.593 235.006 298.593 233.413C298.593 231.821 295.121 230.529 290.838 230.529C286.555 230.529 283.083 231.821 283.083 233.413C283.083 235.006 286.555 236.297 290.838 236.297Z" fill="#2F2E41"/>
<path d="M281.8 191.278C283.126 188.997 278.26 183.751 270.932 179.561C263.603 175.372 256.587 173.825 255.261 176.106C253.935 178.388 258.8 183.634 266.129 187.823C273.457 192.013 280.473 193.56 281.8 191.278Z" fill="#2F2E41"/>
<path d="M303.246 223.608C320.164 223.608 333.879 210.007 333.879 193.23C333.879 176.453 320.164 162.852 303.246 162.852C286.328 162.852 272.613 176.453 272.613 193.23C272.613 210.007 286.328 223.608 303.246 223.608Z" fill="#2F2E41"/>
<path d="M317.206 217.071H307.899V233.606H317.206V217.071Z" fill="#2F2E41"/>
<path d="M298.593 217.071H289.287V233.606H298.593V217.071Z" fill="#2F2E41"/>
<path d="M309.29 199.554C315.072 199.554 319.76 194.906 319.76 189.172C319.76 183.438 315.072 178.789 309.29 178.789C303.508 178.789 298.821 183.438 298.821 189.172C298.821 194.906 303.508 199.554 309.29 199.554Z" fill="white"/>
<path d="M306.768 190.199C308.135 188.844 308.144 186.654 306.787 185.308C305.431 183.962 303.223 183.968 301.855 185.323C300.488 186.678 300.479 188.868 301.836 190.214C303.192 191.561 305.4 191.554 306.768 190.199Z" fill="#3F3D56"/>
<path d="M289.938 191.238C295.72 191.238 300.407 186.59 300.407 180.856C300.407 175.122 295.72 170.474 289.938 170.474C284.156 170.474 279.468 175.122 279.468 180.856C279.468 186.59 284.156 191.238 289.938 191.238Z" fill="white"/>
<path d="M287.415 181.883C288.783 180.528 288.792 178.339 287.435 176.992C286.078 175.646 283.87 175.652 282.503 177.007C281.135 178.362 281.127 180.552 282.483 181.898C283.84 183.245 286.048 183.238 287.415 181.883Z" fill="#3F3D56"/>
<path d="M306.54 172.919C294.313 170.212 286.21 166.16 288.684 155.175C291.157 144.19 303.074 137.479 315.301 140.187C327.528 142.894 335.434 153.994 332.961 164.979C330.488 175.964 318.767 175.626 306.54 172.919Z" fill="#303F9F"/>
<path d="M335.279 216.386C337.846 215.71 338.166 208.59 335.995 200.482C333.823 192.375 329.982 186.35 327.416 187.026C324.849 187.702 324.529 194.823 326.7 202.93C328.872 211.038 332.713 217.062 335.279 216.386Z" fill="#2F2E41"/>
<path d="M296.306 202.267C290.682 202.267 285.409 198.717 285.409 201.69C285.409 204.663 290.682 213.034 296.306 213.034C301.93 213.034 306.998 207.163 306.998 204.19C306.998 201.216 301.93 202.267 296.306 202.267Z" fill="white"/>
<path d="M256.718 142.862H253.997C251.561 142.86 249.224 141.898 247.501 140.19C245.778 138.481 244.808 136.164 244.806 133.747V131.482C244.806 125.873 245.877 121.175 247.992 117.522C250.553 113.271 253.542 109.289 256.912 105.635C259.15 103.404 261.18 100.977 262.978 98.3849C264.268 96.3709 264.934 94.0257 264.894 91.6399C264.894 86.0126 261.197 83.2769 253.591 83.2769C249.372 83.3242 245.18 83.9482 241.133 85.1312C239.572 85.573 237.929 85.6496 236.334 85.3549C234.738 85.0601 233.233 84.4022 231.938 83.4328C230.642 82.4634 229.591 81.209 228.867 79.7683C228.143 78.3277 227.766 76.7401 227.766 75.1305V70.5457C227.757 68.572 228.326 66.6381 229.403 64.9784C230.48 63.3188 232.02 62.0046 233.835 61.1952C240.983 58.1704 248.691 56.6666 256.461 56.7812C264.601 56.7812 271.949 58.1372 278.302 60.8109C284.667 63.4907 289.695 67.2696 293.247 72.0429C296.789 76.7823 298.671 82.5397 298.607 88.4383C298.607 94.7724 296.864 100.289 293.425 104.835C290.023 109.336 285.147 114.262 278.931 119.479C275.657 122.18 272.554 125.079 269.64 128.159C267.758 130.17 266.428 132.625 265.777 135.291C265.414 137.412 264.305 139.337 262.646 140.723C260.988 142.109 258.887 142.867 256.718 142.862V142.862Z" fill="#303F9F"/>
<path d="M255.206 185.728H254.847C250.33 185.725 246 183.944 242.808 180.776C239.615 177.608 237.822 173.313 237.822 168.834C237.822 164.355 239.615 160.06 242.808 156.892C246 153.724 250.33 151.943 254.847 151.94H255.206C257.444 151.938 259.66 152.374 261.728 153.223C263.797 154.071 265.676 155.315 267.259 156.884C268.842 158.453 270.098 160.316 270.955 162.366C271.812 164.417 272.253 166.614 272.253 168.834C272.253 171.053 271.812 173.251 270.955 175.301C270.098 177.352 268.842 179.215 267.259 180.784C265.676 182.353 263.797 183.597 261.728 184.445C259.66 185.293 257.444 185.729 255.206 185.728Z" fill="#303F9F"/>
<path d="M365.92 237H144.711C144.523 237 144.342 236.926 144.208 236.793C144.075 236.661 144 236.482 144 236.295C144 236.108 144.075 235.928 144.208 235.796C144.342 235.664 144.523 235.589 144.711 235.589H365.92C366.108 235.589 366.289 235.664 366.423 235.796C366.556 235.928 366.631 236.108 366.631 236.295C366.631 236.482 366.556 236.661 366.423 236.793C366.289 236.926 366.108 237 365.92 237Z" fill="#CCCCCC"/>
<path d="M515.289 237H397.216C397.028 237 396.847 236.926 396.713 236.793C396.58 236.661 396.505 236.482 396.505 236.295C396.505 236.108 396.58 235.928 396.713 235.796C396.847 235.664 397.028 235.589 397.216 235.589H515.289C515.477 235.589 515.658 235.664 515.792 235.796C515.925 235.928 516 236.108 516 236.295C516 236.482 515.925 236.661 515.792 236.793C515.658 236.926 515.477 237 515.289 237Z" fill="#CCCCCC"/>
<path d="M442.006 216.397C450.463 216.233 457.277 213.965 457.226 211.332C457.174 208.699 450.275 206.698 441.818 206.862C433.361 207.026 426.546 209.293 426.598 211.926C426.65 214.559 433.549 216.561 442.006 216.397Z" fill="#2F2E41"/>
<path d="M372.478 133.762C375.019 133.762 377.078 131.72 377.078 129.2C377.078 126.681 375.019 124.639 372.478 124.639C369.938 124.639 367.878 126.681 367.878 129.2C367.878 131.72 369.938 133.762 372.478 133.762Z" fill="#F2F2F2"/>
<path d="M187.545 117.539C190.085 117.539 192.145 115.496 192.145 112.977C192.145 110.458 190.085 108.416 187.545 108.416C185.005 108.416 182.945 110.458 182.945 112.977C182.945 115.496 185.005 117.539 187.545 117.539Z" fill="#F2F2F2"/>
<path d="M497.663 157.039C500.204 157.039 502.263 154.996 502.263 152.477C502.263 149.958 500.204 147.916 497.663 147.916C495.123 147.916 493.063 149.958 493.063 152.477C493.063 154.996 495.123 157.039 497.663 157.039Z" fill="#F2F2F2"/>
</g>
<defs>
<clipPath id="clip0_0_1">
<rect width="291" height="187" fill="white" transform="translate(0 20)"/>
</clipPath>
<clipPath id="clip1_0_1">
<rect width="372" height="237" fill="white" transform="translate(144)"/>
</clipPath>
</defs>
</svg>
