<svg width="1253" height="809" viewBox="0 0 1253 809" fill="none" xmlns="http://www.w3.org/2000/svg">
<path d="M13.5 198C20.9558 198 27 191.508 27 183.5C27 175.492 20.9558 169 13.5 169C6.04416 169 0 175.492 0 183.5C0 191.508 6.04416 198 13.5 198Z" fill="#A0616A"/>
<path d="M958.5 410C965.956 410 972 403.508 972 395.5C972 387.492 965.956 381 958.5 381C951.044 381 945 387.492 945 395.5C945 403.508 951.044 410 958.5 410Z" fill="white"/>
<path d="M122.36 439.64H115.64V432.36C115.64 429.878 114.73 427.497 113.109 425.742C111.489 423.986 109.291 423 107 423C104.709 423 102.511 423.986 100.891 425.742C99.2703 427.497 98.36 429.878 98.36 432.36V439.64H91.64C89.3485 439.64 87.1509 440.626 85.5306 442.382C83.9103 444.137 83 446.518 83 449C83 451.482 83.9103 453.863 85.5306 455.619C87.1509 457.374 89.3485 458.36 91.64 458.36H98.36V465.64C98.36 468.122 99.2703 470.503 100.891 472.259C102.511 474.014 104.709 475 107 475C109.291 475 111.489 474.014 113.109 472.259C114.73 470.503 115.64 468.122 115.64 465.64V458.36H122.36C124.651 458.36 126.849 457.374 128.469 455.619C130.09 453.863 131 451.482 131 449C131 446.518 130.09 444.137 128.469 442.382C126.849 440.626 124.651 439.64 122.36 439.64V439.64Z" fill="#A0616A"/>
<path d="M1115.49 260.64H1111.99V256.86C1111.99 255.571 1111.52 254.335 1110.68 253.424C1109.83 252.512 1108.69 252 1107.5 252C1106.3 252 1105.16 252.512 1104.32 253.424C1103.47 254.335 1103 255.571 1103 256.86V260.64H1099.5C1098.31 260.64 1097.16 261.152 1096.32 262.063C1095.47 262.975 1095 264.211 1095 265.5C1095 266.789 1095.47 268.025 1096.32 268.937C1097.16 269.848 1098.31 270.36 1099.5 270.36H1103V274.14C1103 275.429 1103.47 276.665 1104.32 277.577C1105.16 278.488 1106.3 279 1107.5 279C1108.69 279 1109.83 278.488 1110.68 277.577C1111.52 276.665 1111.99 275.429 1111.99 274.14V270.36H1115.49C1116.69 270.362 1117.83 269.852 1118.68 268.943C1119.52 268.033 1120 266.798 1120 265.509C1120 264.22 1119.53 262.983 1118.69 262.07C1117.85 261.157 1116.7 260.642 1115.51 260.64H1115.49Z" fill="#FF6584"/>
<path d="M91.491 8.64323H87.9939V4.86574C87.9961 3.57765 87.5245 2.34141 86.6829 1.4289C85.8412 0.516391 84.6984 0.00240292 83.5059 8.39332e-06C82.9155 -0.00117726 82.3306 0.123263 81.7846 0.366242C81.2387 0.609221 80.7425 0.965954 80.3242 1.41611C79.4794 2.32523 79.0035 3.5596 79.0013 4.84769V8.64329H75.5042C74.9137 8.64217 74.3289 8.76667 73.783 9.00971C73.2371 9.25276 72.7408 9.60957 72.3226 10.0598C71.9043 10.51 71.5722 11.0447 71.3453 11.6335C71.1184 12.2223 71.001 12.8537 71 13.4915C70.999 14.1293 71.1143 14.761 71.3393 15.3507C71.5643 15.9404 71.8946 16.4764 72.3114 16.9282C72.7281 17.38 73.2232 17.7387 73.7684 17.9838C74.3135 18.2289 74.898 18.3557 75.4884 18.3568H79.0013V22.1343C78.9991 23.4223 79.4707 24.6586 80.3123 25.5711C81.154 26.4836 82.2967 26.9976 83.4892 27C84.6817 27.0024 85.8262 26.493 86.671 25.5839C87.5158 24.6748 87.9916 23.4404 87.9939 22.1523V18.3568H91.491C92.6835 18.3604 93.8284 17.8523 94.674 16.944C95.5196 16.0358 95.9966 14.8019 96 13.5138C96.0034 12.2257 95.5329 10.9889 94.692 10.0755C93.8512 9.16215 92.7089 8.64694 91.5164 8.64329H91.5068L91.491 8.64323Z" fill="#303F9F"/>
<path d="M352.491 8.64323H348.994V4.86574C348.996 3.57765 348.525 2.34141 347.683 1.4289C346.841 0.516391 345.698 0.00240293 344.506 8.40437e-06C343.313 -0.00238612 342.169 0.506983 341.324 1.41611C340.479 2.32523 340.004 3.5596 340.001 4.84769V8.64329H336.504C335.312 8.64103 334.167 9.15055 333.323 10.0598C332.478 10.969 332.002 12.2034 332 13.4915C331.998 14.7796 332.47 16.0158 333.311 16.9282C334.153 17.8406 335.296 18.3545 336.488 18.3568H340.001V22.1343C339.999 23.4223 340.471 24.6586 341.312 25.5711C342.154 26.4836 343.297 26.9976 344.489 27C345.682 27.0024 346.826 26.493 347.671 25.5839C348.516 24.6748 348.992 23.4404 348.994 22.1523V18.3568H352.491C353.683 18.3604 354.828 17.8523 355.674 16.944C356.52 16.0358 356.997 14.8019 357 13.5138C357.003 12.2257 356.533 10.9889 355.692 10.0755C354.851 9.16215 353.709 8.64694 352.516 8.64329H352.507L352.491 8.64323Z" fill="#FF6584"/>
<path d="M1248.5 508.64H1245V504.86C1245 503.571 1244.53 502.335 1243.68 501.423C1242.84 500.512 1241.69 500 1240.5 500C1239.31 500 1238.16 500.512 1237.32 501.423C1236.47 502.335 1236 503.571 1236 504.86V508.64H1232.5C1231.31 508.64 1230.16 509.152 1229.32 510.063C1228.47 510.975 1228 512.211 1228 513.5C1228 514.789 1228.47 516.025 1229.32 516.936C1230.16 517.848 1231.31 518.36 1232.5 518.36H1236V522.14C1236 523.429 1236.47 524.665 1237.32 525.577C1238.16 526.488 1239.31 527 1240.5 527C1241.69 527 1242.84 526.488 1243.68 525.577C1244.53 524.665 1245 523.429 1245 522.14V518.36H1248.5C1249.69 518.36 1250.84 517.848 1251.68 516.936C1252.53 516.025 1253 514.789 1253 513.5C1253 512.211 1252.53 510.975 1251.68 510.063C1250.84 509.152 1249.69 508.64 1248.5 508.64V508.64Z" fill="#3F51B5"/>
<path d="M843.494 102.64H839.995V98.86C839.995 97.571 839.521 96.3349 838.677 95.4235C837.833 94.5121 836.689 94 835.496 94C834.303 94 833.159 94.5121 832.315 95.4235C831.471 96.3349 830.998 97.571 830.998 98.86V102.64H827.499C826.306 102.64 825.161 103.152 824.318 104.063C823.474 104.975 823 106.211 823 107.5C823 108.789 823.474 110.025 824.318 110.937C825.161 111.848 826.306 112.36 827.499 112.36H830.998V116.14C830.998 117.429 831.471 118.665 832.315 119.577C833.159 120.488 834.303 121 835.496 121C836.689 121 837.833 120.488 838.677 119.577C839.521 118.665 839.995 117.429 839.995 116.14V112.36H843.494C844.084 112.361 844.669 112.237 845.216 111.993C845.762 111.75 846.258 111.393 846.677 110.943C847.095 110.492 847.428 109.957 847.655 109.368C847.882 108.779 847.999 108.147 848 107.509C848.001 106.87 847.886 106.238 847.661 105.648C847.435 105.058 847.105 104.522 846.688 104.07C846.271 103.617 845.776 103.259 845.23 103.013C844.685 102.768 844.1 102.641 843.509 102.64H843.494Z" fill="#303F9F"/>
<path d="M224.495 206.643H220.997V202.866C220.999 201.578 220.528 200.341 219.686 199.429C218.844 198.516 217.701 198.002 216.508 198C215.316 197.998 214.171 198.507 213.326 199.416C212.481 200.325 212.005 201.56 212.003 202.848V206.643H208.505C207.312 206.641 206.168 207.151 205.323 208.06C204.478 208.969 204.002 210.203 204 211.491C203.998 212.78 204.47 214.016 205.312 214.928C206.154 215.841 207.297 216.355 208.489 216.357H212.003V220.134C212.001 221.422 212.472 222.659 213.314 223.571C214.156 224.484 215.299 224.998 216.492 225C217.684 225.002 218.829 224.493 219.674 223.584C220.519 222.675 220.995 221.44 220.997 220.152V216.357H224.495C225.688 216.359 226.832 215.85 227.677 214.94C228.522 214.031 228.998 212.797 229 211.509C229.002 210.22 228.53 208.984 227.688 208.072C226.846 207.159 225.703 206.646 224.511 206.643L224.495 206.643Z" fill="#42C586"/>
<g clip-path="url(#clip0_753_4797)">
<path d="M968.269 139.56H905.013V678.854C905.013 687.315 903.346 695.694 900.108 703.511C896.87 711.329 892.124 718.431 886.141 724.415C880.158 730.398 873.055 735.144 865.238 738.382C857.421 741.62 849.042 743.286 840.581 743.286H356.962V743.903C356.962 752.364 358.628 760.743 361.867 768.56C365.105 776.377 369.851 783.48 375.834 789.463C381.817 795.446 388.92 800.192 396.737 803.43C404.554 806.668 412.933 808.335 421.394 808.335H968.269C976.731 808.335 985.109 806.668 992.926 803.43C1000.74 800.192 1007.85 795.446 1013.83 789.463C1019.81 783.48 1024.56 776.377 1027.8 768.56C1031.03 760.743 1032.7 752.364 1032.7 743.903V203.992C1032.7 195.531 1031.03 187.152 1027.8 179.335C1024.56 171.518 1019.81 164.415 1013.83 158.432C1007.85 152.449 1000.74 147.703 992.926 144.465C985.109 141.227 976.73 139.56 968.269 139.56V139.56Z" fill="#B1BCFF"/>
<path d="M889.995 84.2375H267.744C252.974 84.2375 241 96.2113 241 110.982V726.268C241 741.039 252.974 753.013 267.744 753.013H889.995C904.766 753.013 916.74 741.039 916.74 726.268V110.982C916.74 96.2113 904.766 84.2375 889.995 84.2375Z" fill="#B1BCFF"/>
<path d="M305.433 97.4878C291.858 97.4878 278.84 102.88 269.242 112.479C259.643 122.077 254.251 135.095 254.251 148.669V688.581C254.251 702.155 259.643 715.173 269.242 724.772C278.84 734.37 291.858 739.762 305.433 739.762H654.462C791.995 739.762 903.488 628.269 903.488 490.735V148.669C903.488 135.095 898.096 122.077 888.498 112.479C878.899 102.88 865.881 97.4878 852.307 97.4878H305.433Z" fill="white"/>
<path d="M931.527 459.824C928.732 460.599 925.802 460.757 922.939 460.287C920.076 459.818 917.35 458.732 914.948 457.106C912.546 455.479 910.527 453.35 909.029 450.866C907.531 448.382 906.59 445.602 906.272 442.719L810.707 413.859L812.191 385.463L925.444 420.571C930.337 420.396 935.124 422.023 938.898 425.142C942.672 428.261 945.171 432.657 945.921 437.495C946.671 442.334 945.62 447.279 942.967 451.395C940.314 455.51 936.244 458.509 931.527 459.824V459.824Z" fill="#FFB6B6"/>
<path d="M609.78 313.347C600.103 305.272 614.272 265.248 610.452 253.647C610.223 252.945 610.006 252.241 609.8 251.534C609.368 250.037 609.465 248.437 610.074 247.002L645.992 230.108C655.351 233.931 663.975 239.353 671.477 246.13L726.965 309.503L782.088 359.289L806.276 370.072L886.427 405.821L885.597 408.217L885.59 408.224L876.78 433.811L876.779 433.825L894.404 446.111L836.704 437.419L798.545 421.678L761.8 406.525C707.548 373.875 618.288 356.951 609.78 313.347Z" fill="#303F9F"/>
<path d="M865.51 607.037C864.451 607.519 863.27 607.663 862.126 607.451C860.982 607.239 859.93 606.681 859.114 605.851C858.298 605.022 857.757 603.962 857.564 602.814C857.371 601.667 857.535 600.488 858.034 599.437C857.955 598.856 857.899 598.438 857.82 597.857C857.726 597.761 857.632 597.666 857.538 597.57C848.055 587.95 831.652 594.617 831.485 608.124C831.336 620.113 830.029 632.586 833.047 643.99C834.383 649.03 836.583 653.8 839.549 658.087C820.763 640.24 806.034 618.561 796.362 594.522C793.94 588.487 791.859 582.322 790.126 576.055C788.71 570.915 787.523 565.724 786.565 560.482C781.397 532.028 783.052 502.754 791.394 475.064C797.728 467.391 801.558 457.962 802.368 448.046C802.671 444.477 802.456 440.883 801.729 437.376C800.862 437.862 792.747 424.95 793.094 423.819C791.045 422.396 788.378 422.349 786.23 421.02C775.547 414.409 766.666 419.869 766.799 434.618C758.314 444.249 761.779 453.193 771.736 459.139C778.071 462.922 781.596 470.064 787.576 474.436C787.393 475.066 787.19 475.687 787.007 476.317C783.687 487.873 781.507 499.726 780.498 511.707C777.481 500.076 770.049 487.586 763.041 480.424C755.06 472.261 744.151 467.065 734.061 461.287C721.943 454.346 707.224 465.394 710.97 478.847C711.007 478.977 711.043 479.107 711.08 479.237C712.3 479.4 713.512 479.605 714.718 479.854C716.235 480.174 717.621 480.945 718.692 482.065C719.764 483.186 720.472 484.605 720.724 486.135C720.976 487.665 720.76 489.236 720.104 490.641C719.448 492.046 718.383 493.221 717.048 494.01L716.911 494.091C718.702 497.534 720.753 500.837 723.045 503.969C727.769 540.641 751.17 545.31 777.875 535.238C778.58 535.304 779.269 535.375 779.968 535.426C780.651 551.694 783.446 567.805 788.284 583.353C791.166 592.514 794.785 601.427 799.104 610.005L798.933 609.708C793.055 600.6 784.215 593.8 773.904 590.455C758.646 585.626 741.036 588.653 725.614 586.036C718.191 584.777 712.441 592.553 716.251 599.048C716.312 599.151 716.373 599.255 716.435 599.358C718.582 599.37 720.727 599.516 722.856 599.795C724.076 599.958 725.288 600.163 726.494 600.411C728.011 600.731 729.397 601.502 730.468 602.623C731.54 603.744 732.248 605.163 732.5 606.693C732.752 608.223 732.536 609.794 731.88 611.199C731.224 612.604 730.159 613.778 728.824 614.568L728.687 614.649C728.588 614.706 728.504 614.757 728.405 614.814C734.578 621.081 741.784 626.24 749.706 630.063C766.704 656.917 790.882 650.421 812.18 632.082L812.195 632.076C819.619 642.759 828.134 652.642 837.602 661.565L879.429 644.802C879.392 644.277 879.335 643.743 879.284 643.224C875.51 645.019 871.53 646.346 867.434 647.173C869.011 642.122 870.576 637.04 872.153 631.988C872.194 631.889 872.229 631.788 872.258 631.685C873.051 629.106 873.865 626.535 874.658 623.955L874.658 623.953C872.348 617.945 869.274 612.26 865.512 607.037L865.51 607.037Z" fill="#B1BCFF"/>
<path d="M635.611 643.846L635.131 643.246C633.751 634.366 635.611 643.846 635.611 643.846Z" fill="#2F2E41"/>
<path d="M660.111 739.636H526.113C515.702 713.756 508.476 695.246 508.476 695.246C508.476 695.246 506.721 713.376 504.217 739.636H383.074C381.94 668.276 380.353 595.006 379.831 571.736L612.356 576.916L635.484 606.246C635.563 606.736 635.642 607.276 635.74 607.886C636.677 613.846 649.266 677.816 660.111 739.636Z" fill="#2F2E41"/>
<path d="M658.079 237.742L658.057 237.701C657.318 236.329 656.129 235.253 654.69 234.656C639.978 223.241 623.869 218.037 605.791 221.596C602.831 212.636 600.071 212.636 600.071 212.636L560.861 199.686L555.221 165.236L458.611 161.966L449.831 204.956C449.831 204.956 395.831 214.636 395.831 221.636C395.831 228.636 404.831 228.636 395.831 228.636C386.831 228.636 384.421 220.636 376.631 228.636C375.963 229.308 375.259 229.943 374.521 230.536C374.431 230.616 374.331 230.686 374.241 230.766C365.437 237.691 358.518 246.721 354.123 257.023C349.728 267.326 347.997 278.569 349.091 289.716L365.701 454.946L383.431 631.256L626.071 641.356L642.321 491.326L658.85 241.703C658.998 240.335 658.729 238.955 658.079 237.742V237.742Z" fill="#303F9F"/>
<path d="M826.062 327.46C820.908 305.814 821.767 284.494 830.592 263.606C830.686 262.314 831.287 261.111 832.266 260.262C833.245 259.413 834.52 258.987 835.813 259.077L884.037 262.499C885.329 262.592 886.532 263.194 887.381 264.173C888.23 265.152 888.656 266.427 888.565 267.72L884.035 331.573C883.941 332.866 883.339 334.068 882.361 334.917C881.382 335.766 880.107 336.192 878.814 336.102L830.59 332.68C829.298 332.587 828.095 331.985 827.246 331.007C826.397 330.028 825.971 328.752 826.062 327.46V327.46Z" fill="#B1BCFF"/>
<path d="M831.129 308.436C827.004 297.769 829.642 283.099 834.042 267.385C834.129 266.175 834.693 265.048 835.609 264.253C836.526 263.458 837.721 263.059 838.931 263.143L880.375 266.084C881.586 266.171 882.712 266.735 883.507 267.652C884.302 268.568 884.701 269.763 884.617 270.973L880.585 327.795C880.498 329.005 879.934 330.131 879.017 330.926C878.101 331.721 876.906 332.12 875.696 332.036L850.022 330.214C844.631 329.826 839.614 327.314 836.072 323.232C832.53 319.149 830.753 313.828 831.129 308.436Z" fill="white"/>
<path d="M859.822 311.22C858.556 311.002 857.29 310.785 856.024 310.567C856.608 309.191 856.944 307.722 857.019 306.229C857.618 298.238 857.678 290.17 857.998 282.162C857.99 281.869 857.897 281.585 857.731 281.343C857.564 281.102 857.332 280.914 857.061 280.802C856.791 280.69 856.493 280.658 856.205 280.711C855.917 280.764 855.65 280.9 855.437 281.101C852.258 283.734 849.079 286.368 845.899 289.001C844.411 290.233 846.544 292.345 848.021 291.122C850.303 289.232 852.585 287.342 854.867 285.452C854.657 290.699 854.448 295.946 854.238 301.193C854.138 303.712 854.444 306.77 853.413 309.137C853.272 309.456 853.088 309.755 852.866 310.025C851.464 309.784 850.063 309.543 848.661 309.302C847.653 309.129 846.372 309.97 846.816 311.147C847.781 313.706 850.625 314.515 853.063 313.529C853.278 313.432 853.486 313.321 853.685 313.195L859.025 314.113C860.913 314.437 861.724 311.547 859.822 311.22Z" fill="#303F9F"/>
<path d="M1106.06 542.46C1100.91 520.814 1101.77 499.494 1110.59 478.606C1110.69 477.314 1111.29 476.111 1112.27 475.262C1113.24 474.413 1114.52 473.987 1115.81 474.077L1164.04 477.499C1165.33 477.592 1166.53 478.194 1167.38 479.173C1168.23 480.152 1168.66 481.427 1168.57 482.72L1164.03 546.573C1163.94 547.866 1163.34 549.068 1162.36 549.917C1161.38 550.766 1160.11 551.192 1158.81 551.102L1110.59 547.68C1109.3 547.587 1108.1 546.985 1107.25 546.007C1106.4 545.028 1105.97 543.752 1106.06 542.46V542.46Z" fill="#B1BCFF"/>
<path d="M1111.13 523.436C1107 512.769 1109.64 498.099 1114.04 482.385C1114.13 481.175 1114.69 480.048 1115.61 479.253C1116.53 478.458 1117.72 478.059 1118.93 478.143L1160.38 481.084C1161.59 481.171 1162.71 481.735 1163.51 482.652C1164.3 483.568 1164.7 484.763 1164.62 485.973L1160.59 542.794C1160.5 544.005 1159.93 545.131 1159.02 545.926C1158.1 546.721 1156.91 547.12 1155.7 547.036L1130.02 545.214C1124.63 544.825 1119.61 542.314 1116.07 538.231C1112.53 534.149 1110.75 528.828 1111.13 523.436V523.436Z" fill="white"/>
<path d="M1138.18 512.602C1138.73 512.345 1139.26 512.028 1139.74 511.659C1141.02 510.599 1141.97 509.189 1142.47 507.601C1142.97 506.012 1143 504.312 1142.55 502.707C1140.61 495.563 1132.06 495.52 1126.16 496.379C1124.26 496.657 1125.07 499.548 1126.96 499.272C1130.94 498.693 1137.18 498.225 1139.32 502.567C1139.8 503.588 1139.98 504.73 1139.81 505.849C1139.65 506.967 1139.16 508.013 1138.4 508.852C1137.5 509.761 1136.3 510.328 1135.03 510.457C1133.79 509.919 1132.45 509.669 1131.1 509.725C1129.71 509.79 1128.93 511.812 1130.34 512.52C1131.59 513.14 1132.96 513.464 1134.35 513.465C1135.5 514.022 1136.47 514.907 1137.12 516.01C1137.77 517.113 1138.09 518.384 1138.02 519.663C1137.89 520.536 1137.58 521.374 1137.13 522.13C1136.67 522.886 1136.07 523.544 1135.36 524.068C1134.65 524.591 1133.84 524.97 1132.98 525.181C1132.13 525.393 1131.24 525.434 1130.36 525.302L1130.33 525.296C1128.44 524.917 1127.63 527.808 1129.53 528.189C1132.07 528.668 1134.7 528.117 1136.83 526.659C1138.97 525.201 1140.44 522.954 1140.92 520.413C1140.94 520.275 1140.96 520.137 1140.98 519.998C1141.1 518.634 1140.91 517.261 1140.43 515.981C1139.94 514.7 1139.18 513.545 1138.18 512.602V512.602Z" fill="#303F9F"/>
<path d="M1052.06 200.46C1046.91 178.814 1047.77 157.494 1056.59 136.606C1056.69 135.314 1057.29 134.111 1058.27 133.262C1059.24 132.413 1060.52 131.987 1061.81 132.077L1110.04 135.499C1111.33 135.592 1112.53 136.194 1113.38 137.173C1114.23 138.152 1114.66 139.427 1114.57 140.72L1110.03 204.573C1109.94 205.866 1109.34 207.068 1108.36 207.917C1107.38 208.766 1106.11 209.192 1104.81 209.102L1056.59 205.68C1055.3 205.587 1054.1 204.985 1053.25 204.007C1052.4 203.028 1051.97 201.752 1052.06 200.46V200.46Z" fill="#B1BCFF"/>
<path d="M1057.13 181.436C1053 170.769 1055.64 156.099 1060.04 140.385C1060.13 139.175 1060.69 138.048 1061.61 137.253C1062.53 136.458 1063.72 136.059 1064.93 136.143L1106.38 139.084C1107.59 139.171 1108.71 139.735 1109.51 140.652C1110.3 141.568 1110.7 142.763 1110.62 143.973L1106.58 200.795C1106.5 202.005 1105.93 203.131 1105.02 203.926C1104.1 204.721 1102.91 205.12 1101.7 205.036L1076.02 203.214C1070.63 202.826 1065.61 200.314 1062.07 196.232C1058.53 192.149 1056.75 186.828 1057.13 181.436V181.436Z" fill="white"/>
<path d="M1082.61 152.842C1078.37 151.367 1073.64 154.727 1073.16 159.083C1072.61 164.02 1077.92 167.918 1082.52 166.576C1084.37 166.036 1083.58 163.14 1081.72 163.683C1078.35 164.667 1074.76 161.028 1076.7 157.774C1077.14 156.989 1077.81 156.357 1078.62 155.961C1079.42 155.565 1080.33 155.425 1081.22 155.56C1081.98 155.769 1082.68 156.153 1083.26 156.68C1083.84 157.207 1084.29 157.862 1084.57 158.594C1086.22 162.321 1084.26 166.104 1081.65 168.812C1080.17 170.357 1078.42 171.557 1076.82 172.965C1076.04 173.554 1075.4 174.298 1074.92 175.151C1074.45 176.005 1074.16 176.948 1074.08 177.919C1074.12 179.012 1074.46 180.073 1075.06 180.986C1075.66 181.9 1076.5 182.631 1077.49 183.102C1080.05 184.417 1082.96 183.999 1085.68 183.561C1087.58 183.255 1086.77 180.364 1084.88 180.668C1082.5 181.051 1078.94 181.631 1077.43 179.15C1076.14 177.025 1078.8 175.159 1080.25 174.029C1083.89 171.188 1087.57 167.519 1088.12 162.689C1088.57 158.732 1086.56 154.21 1082.61 152.842Z" fill="#303F9F"/>
<path d="M350.796 445.13L374.556 455.83C363.386 464.89 346.376 477.08 329.716 482.72L303.246 464.67C293.386 426.65 299.426 387.47 311.276 354.34C317.842 335.931 326.548 318.357 337.216 301.98C336.123 290.833 337.855 279.59 342.25 269.288C346.645 258.985 353.563 249.955 362.366 243.03C362.466 242.95 362.556 242.88 362.646 242.8C371.414 250.409 378.577 259.69 383.714 270.101C388.852 280.512 391.861 291.842 392.566 303.43L393.096 312.19L394.156 329.45L396.846 373.53L364.946 423.13L350.796 445.13Z" fill="#303F9F"/>
<path d="M357.002 365.353V552.613C357.004 555 357.953 557.288 359.64 558.975C361.328 560.663 363.616 561.611 366.002 561.613H643.502C645.888 561.611 648.176 560.663 649.864 558.975C651.551 557.288 652.5 555 652.502 552.613V365.353C652.496 362.969 651.546 360.684 649.859 358.999C648.172 357.314 645.886 356.366 643.502 356.363H366.002C363.618 356.366 361.332 357.314 359.645 358.999C357.958 360.684 357.008 362.969 357.002 365.353V365.353Z" fill="#3F3D56"/>
<path d="M511.966 158.127C546.498 158.127 574.492 130.133 574.492 95.6001C574.492 61.0676 546.498 33.0735 511.966 33.0735C477.433 33.0735 449.439 61.0676 449.439 95.6001C449.439 130.133 477.433 158.127 511.966 158.127Z" fill="#FFB6B6"/>
<path d="M586.831 84.6616C580.09 86.7545 573.591 87.9881 569.207 82.4586C564.823 76.9291 565.969 70.6066 559.448 67.941C554.183 65.7822 548.102 66.7074 542.793 68.7121C541.846 69.0646 540.921 69.4611 540.018 69.8576C539.511 69.417 539.004 68.9986 538.453 68.6019C534.309 65.6545 529.192 64.4088 524.156 65.1213C527.837 66.8992 530.866 69.7891 532.814 73.3824C531.007 74.2856 529.067 74.9606 527.329 75.9598C503.45 89.6885 476.894 95.2176 479.062 72.303C486.287 91.3365 480.67 98.1217 470.073 115.503L469.655 116.516C470.712 111.956 463.278 111.74 456.856 113.3C452.112 114.452 455.182 125.51 461.262 133.127C447.669 112.661 427.311 81.4143 444.916 65.738C447.512 63.426 449.141 60.1639 449.608 51.8153C449.884 46.8653 458.31 45.625 462.76 47.8279C463.404 40.385 466.005 33.2449 470.299 27.132C474.594 21.019 480.429 16.1508 487.213 13.0211C500.827 6.96295 514.673 16.2822 529.465 18.0879C537.673 19.0898 543.897 22.3954 544.225 32.8698C544.443 39.8451 554.954 42.3426 561.827 43.5762C566.189 44.3473 571.101 43.8847 574.582 46.6384C578.614 49.8327 578.657 55.4502 578.636 60.8475C574.691 60.735 570.802 61.801 567.467 63.9095C571.55 64.0122 575.497 65.3998 578.746 67.8749C578.808 67.9136 578.867 67.9578 578.922 68.0071C580.112 77.0835 579.627 79.0001 586.831 84.6616Z" fill="#2F2E41"/>
<path d="M631.926 389.541C656.358 381.948 682.513 390.159 707.08 383.151C712.73 381.605 718.071 379.097 722.869 375.735C726.961 372.632 730.803 369.213 734.36 365.508C741.75 358.199 749.775 350.525 760.878 350.609C775.499 350.721 786.724 361.581 796.47 371.171C797.847 372.526 799.97 370.406 798.591 369.05C789.636 360.238 779.961 350.941 767.215 348.311C761.497 347.043 755.529 347.539 750.099 349.733C745.388 351.873 741.084 354.816 737.38 358.43C733.455 362.029 729.834 365.949 725.856 369.492C721.702 373.27 716.918 376.29 711.72 378.414C700.458 382.898 688.104 383.439 676.126 383.309C661.09 383.145 645.695 382.121 631.128 386.648C629.291 387.219 630.075 390.116 631.926 389.541H631.926Z" fill="#3F3D56"/>
<path d="M801.828 350.953L809.338 364.192L812.972 370.599C813.618 371.737 814.282 372.868 814.91 374.015C815.297 374.721 816.14 375.992 815.335 376.661C814.627 377.006 813.831 377.131 813.052 377.017C811.728 377.02 810.403 376.99 809.079 376.977L801.631 376.901L786.238 376.745C785.849 376.759 785.48 376.923 785.21 377.202C784.94 377.482 784.789 377.856 784.789 378.245C784.789 378.634 784.94 379.008 785.21 379.288C785.48 379.568 785.849 379.732 786.238 379.745C795.174 379.836 804.115 380.024 813.052 380.017C814.611 380.166 816.171 379.739 817.437 378.817C818.057 378.2 818.467 377.404 818.61 376.541C818.753 375.678 818.621 374.792 818.232 374.008C817.351 372.085 816.338 370.226 815.199 368.444L811.928 362.678L804.418 349.439C804.21 349.109 803.883 348.874 803.505 348.782C803.126 348.69 802.727 348.748 802.391 348.944C802.055 349.141 801.809 349.46 801.703 349.835C801.598 350.209 801.643 350.61 801.828 350.953V350.953Z" fill="#3F3D56"/>
<path d="M901.097 383.394H832.066C831.688 383.396 831.313 383.323 830.964 383.18C830.614 383.036 830.296 382.825 830.027 382.559C829.759 382.293 829.546 381.976 829.4 381.627C829.254 381.279 829.179 380.905 829.178 380.527C829.177 380.149 829.25 379.774 829.394 379.424C829.537 379.075 829.749 378.757 830.015 378.489C830.282 378.221 830.599 378.008 830.948 377.863C831.296 377.718 831.671 377.642 832.049 377.642C832.054 377.642 832.06 377.642 832.066 377.642H901.097C901.475 377.64 901.849 377.713 902.199 377.856C902.549 378 902.867 378.21 903.135 378.477C903.403 378.743 903.617 379.06 903.762 379.408C903.908 379.757 903.984 380.131 903.985 380.509C903.986 380.887 903.913 381.262 903.769 381.611C903.625 381.961 903.414 382.279 903.147 382.547C902.881 382.815 902.564 383.027 902.215 383.173C901.866 383.318 901.492 383.394 901.114 383.394C901.108 383.394 901.102 383.394 901.097 383.394Z" fill="#FF6584"/>
<path d="M901.097 429.723H832.066C831.688 429.724 831.314 429.65 830.965 429.507C830.615 429.363 830.298 429.153 830.03 428.886C829.762 428.62 829.549 428.304 829.403 427.955C829.258 427.606 829.182 427.233 829.181 426.855C829.18 426.477 829.253 426.103 829.397 425.754C829.54 425.404 829.751 425.086 830.017 424.819C830.284 424.551 830.6 424.338 830.949 424.192C831.297 424.047 831.671 423.971 832.049 423.97C832.055 423.97 832.06 423.97 832.066 423.97H901.097C901.475 423.969 901.849 424.042 902.198 424.186C902.548 424.329 902.865 424.54 903.133 424.806C903.401 425.073 903.614 425.389 903.76 425.738C903.905 426.086 903.981 426.46 903.982 426.838C903.983 427.215 903.91 427.59 903.766 427.939C903.623 428.288 903.412 428.606 903.146 428.874C902.879 429.142 902.563 429.355 902.214 429.5C901.866 429.646 901.492 429.721 901.114 429.723C901.108 429.723 901.103 429.723 901.097 429.723Z" fill="#FF6584"/>
<path d="M968.862 406.559H832.066C831.688 406.56 831.313 406.487 830.964 406.344C830.614 406.201 830.296 405.99 830.027 405.723C829.759 405.457 829.546 405.14 829.4 404.792C829.255 404.443 829.179 404.069 829.178 403.691C829.177 403.313 829.25 402.938 829.394 402.589C829.537 402.239 829.749 401.921 830.015 401.653C830.282 401.385 830.599 401.173 830.948 401.027C831.296 400.882 831.671 400.807 832.049 400.806C832.054 400.806 832.06 400.806 832.066 400.806H968.862C969.24 400.804 969.615 400.877 969.964 401.021C970.314 401.164 970.632 401.375 970.901 401.641C971.169 401.907 971.382 402.224 971.528 402.573C971.673 402.921 971.749 403.296 971.75 403.674C971.751 404.052 971.678 404.426 971.534 404.776C971.391 405.125 971.179 405.443 970.913 405.711C970.646 405.979 970.329 406.192 969.98 406.337C969.632 406.483 969.257 406.558 968.879 406.559C968.874 406.559 968.868 406.559 968.862 406.559Z" fill="#FF6584"/>
<path d="M877.275 356.23C892.462 335.641 918.399 326.763 934.04 306.565C937.677 301.973 940.495 296.788 942.369 291.238C943.828 286.314 944.898 281.283 945.57 276.191C947.194 265.925 949.114 254.988 958.109 248.48C969.955 239.909 985.433 242.01 998.965 243.964C999.351 244.009 999.74 243.903 1000.05 243.667C1000.36 243.431 1000.57 243.084 1000.62 242.7C1000.68 242.315 1000.59 241.922 1000.36 241.605C1000.14 241.287 999.8 241.07 999.417 240.998C986.983 239.203 973.681 237.443 961.854 242.874C956.496 245.24 951.981 249.174 948.905 254.159C946.378 258.674 944.653 263.594 943.809 268.7C942.779 273.925 942.184 279.227 941.077 284.438C939.969 289.943 937.903 295.21 934.973 300C928.556 310.284 918.923 318.037 909.195 325.027C896.984 333.802 883.974 342.096 874.919 354.372C873.776 355.92 876.124 357.79 877.275 356.23L877.275 356.23Z" fill="#3F3D56"/>
<path d="M991.305 224.5L1005.2 230.719L1011.92 233.728C1013.12 234.262 1014.32 234.78 1015.51 235.332C1016.24 235.672 1017.67 236.196 1017.42 237.212C1017.24 237.904 1016.32 238.461 1015.79 238.851C1014.72 239.638 1013.64 240.399 1012.56 241.172L1006.52 245.523L994.022 254.516C993.717 254.757 993.518 255.107 993.466 255.493C993.414 255.878 993.513 256.269 993.744 256.582C993.974 256.896 994.317 257.107 994.701 257.173C995.084 257.238 995.478 257.152 995.799 256.933C1003.05 251.712 1010.37 246.568 1017.56 241.268C1018.91 240.465 1019.91 239.197 1020.39 237.704C1020.52 236.84 1020.38 235.955 1019.98 235.175C1019.59 234.395 1018.96 233.76 1018.18 233.358C1016.33 232.331 1014.41 231.434 1012.44 230.672L1006.39 227.964L992.495 221.746C992.133 221.604 991.729 221.608 991.37 221.758C991.011 221.907 990.723 222.191 990.569 222.548C990.415 222.905 990.405 223.309 990.542 223.673C990.68 224.037 990.953 224.334 991.305 224.5L991.305 224.5Z" fill="#3F3D56"/>
<path d="M1116.1 240.394H1047.07C1046.69 240.396 1046.31 240.323 1045.96 240.18C1045.61 240.036 1045.3 239.826 1045.03 239.559C1044.76 239.293 1044.55 238.976 1044.4 238.628C1044.25 238.279 1044.18 237.905 1044.18 237.527C1044.18 237.149 1044.25 236.774 1044.39 236.425C1044.54 236.075 1044.75 235.757 1045.02 235.489C1045.28 235.221 1045.6 235.009 1045.95 234.863C1046.3 234.718 1046.67 234.643 1047.05 234.642C1047.05 234.642 1047.06 234.642 1047.07 234.642H1116.1C1116.47 234.64 1116.85 234.713 1117.2 234.857C1117.55 235 1117.87 235.211 1118.14 235.477C1118.4 235.743 1118.62 236.06 1118.76 236.409C1118.91 236.757 1118.98 237.131 1118.98 237.509C1118.99 237.887 1118.91 238.262 1118.77 238.612C1118.63 238.961 1118.41 239.279 1118.15 239.547C1117.88 239.815 1117.56 240.028 1117.22 240.173C1116.87 240.319 1116.49 240.394 1116.11 240.394C1116.11 240.394 1116.1 240.394 1116.1 240.394Z" fill="#303F9F"/>
<path d="M930.275 447.042C945.462 467.632 971.399 476.509 987.04 496.707C990.677 501.299 993.495 506.484 995.369 512.034C996.828 516.958 997.898 521.989 998.57 527.081C1000.19 537.347 1002.11 548.284 1011.11 554.792C1022.95 563.363 1038.43 561.262 1051.96 559.308C1052.35 559.263 1052.74 559.369 1053.05 559.605C1053.36 559.841 1053.57 560.188 1053.62 560.572C1053.68 560.957 1053.59 561.35 1053.37 561.667C1053.14 561.985 1052.8 562.202 1052.42 562.274C1039.98 564.07 1026.68 565.829 1014.85 560.398C1009.5 558.032 1004.98 554.098 1001.91 549.113C999.378 544.598 997.653 539.678 996.809 534.572C995.779 529.347 995.184 524.045 994.077 518.834C992.969 513.329 990.903 508.062 987.973 503.272C981.556 492.988 971.923 485.235 962.195 478.245C949.984 469.47 936.974 461.176 927.919 448.901C926.776 447.352 929.124 445.482 930.275 447.042L930.275 447.042Z" fill="#3F3D56"/>
<path d="M1044.31 578.772L1058.2 572.554L1064.92 569.545C1066.12 569.01 1067.32 568.492 1068.51 567.94C1069.24 567.601 1070.67 567.076 1070.42 566.06C1070.24 565.368 1069.32 564.812 1068.79 564.421C1067.72 563.634 1066.64 562.874 1065.56 562.1L1059.52 557.749L1047.02 548.757C1046.72 548.515 1046.52 548.165 1046.47 547.78C1046.41 547.394 1046.51 547.003 1046.74 546.69C1046.97 546.377 1047.32 546.165 1047.7 546.099C1048.08 546.034 1048.48 546.12 1048.8 546.34C1056.05 551.56 1063.37 556.704 1070.56 562.004C1071.91 562.807 1072.91 564.075 1073.39 565.568C1073.52 566.432 1073.38 567.317 1072.98 568.097C1072.59 568.877 1071.96 569.512 1071.18 569.914C1069.33 570.941 1067.41 571.839 1065.44 572.6L1059.39 575.308L1045.5 581.526C1045.13 581.668 1044.73 581.664 1044.37 581.514C1044.01 581.365 1043.72 581.081 1043.57 580.724C1043.42 580.367 1043.41 579.964 1043.54 579.599C1043.68 579.235 1043.95 578.938 1044.31 578.772H1044.31Z" fill="#3F3D56"/>
<path d="M1169.1 571.394H1100.07C1099.3 571.397 1098.57 571.097 1098.03 570.56C1097.49 570.023 1097.18 569.293 1097.18 568.531C1097.18 567.768 1097.48 567.036 1098.01 566.494C1098.55 565.952 1099.28 565.646 1100.04 565.642C1100.05 565.642 1100.06 565.642 1100.07 565.642H1169.1C1169.86 565.639 1170.59 565.939 1171.13 566.476C1171.67 567.013 1171.98 567.743 1171.98 568.505C1171.99 569.268 1171.69 570 1171.15 570.542C1170.61 571.083 1169.88 571.39 1169.12 571.394C1169.11 571.394 1169.11 571.394 1169.1 571.394Z" fill="#303F9F"/>
<path d="M382.167 459.59C380.86 462.18 379.006 464.455 376.734 466.258C374.461 468.06 371.824 469.348 369.005 470.031C366.186 470.715 363.252 470.777 360.406 470.215C357.56 469.653 354.87 468.48 352.523 466.776L280.627 500.989L275.809 480.839L349.027 437.691C352.189 433.953 356.612 431.504 361.459 430.809C366.306 430.115 371.239 431.222 375.324 433.921C379.409 436.62 382.362 440.724 383.623 445.455C384.884 450.186 384.366 455.216 382.167 459.59L382.167 459.59Z" fill="#FFB6B6"/>
<path d="M354.462 355.668L303.872 459.038L325.252 449.348L340.132 442.598L347.592 470.938C347.592 470.938 342.652 475.738 334.862 482.048C323.692 491.108 306.682 503.298 290.022 508.938C276.982 513.358 264.172 513.768 254.552 505.528C236.292 489.888 254.142 427.778 271.392 380.488C282.942 348.818 294.212 323.808 294.212 323.808C294.212 290.408 359.031 242.381 371.061 235.811C377.931 232.071 379.83 237.518 379.83 237.518L342.132 292.708L353.402 338.408L356.592 351.318L354.462 355.668Z" fill="#303F9F"/>
<path d="M1015.49 41.6432H1012V37.8657C1012 36.5777 1011.53 35.3414 1010.69 34.4289C1009.84 33.5164 1008.7 33.0024 1007.51 33C1006.32 32.9976 1005.17 33.507 1004.33 34.4161C1003.48 35.3252 1003.01 36.5596 1003 37.8477V41.6433H999.505C998.312 41.641 997.168 42.1505 996.323 43.0598C995.478 43.969 995.002 45.2034 995 46.4915C994.998 47.7796 995.47 49.0158 996.312 49.9282C997.154 50.8406 998.297 51.3545 999.489 51.3568H1003V55.1343C1003 56.4223 1003.47 57.6586 1004.31 58.5711C1005.16 59.4836 1006.3 59.9976 1007.49 60C1008.68 60.0024 1009.83 59.493 1010.67 58.5839C1011.52 57.6748 1011.99 56.4404 1012 55.1523V51.3568H1015.49C1016.69 51.359 1017.83 50.8495 1018.68 49.9403C1019.52 49.0311 1020 47.7967 1020 46.5086C1020 45.2205 1019.53 43.9843 1018.69 43.0719C1017.85 42.1595 1016.7 41.6456 1015.51 41.6433V41.6433L1015.49 41.6432Z" fill="#FF6584"/>
</g>
<path d="M136.517 695.732C138.232 699.203 139.963 701.746 141.709 703.004L724.272 704C726.018 702.742 727.749 700.199 729.464 696.728C749.839 655.487 711.402 610.766 656.241 610.682L209.77 610C154.684 609.916 116.169 654.547 136.517 695.732Z" fill="white"/>
<path d="M724.489 705L724.016 704.999L142.491 704.002L142.141 703.749C140.33 702.441 138.53 699.94 136.639 696.102C131.829 686.507 130.054 676.097 131.476 665.811C132.898 655.524 137.471 645.685 144.783 637.18C152.083 628.499 161.908 621.392 173.398 616.48C184.888 611.567 197.695 608.999 210.699 609H210.852L656.165 609.682C669.216 609.702 682.063 612.299 693.583 617.247C705.103 622.194 714.946 629.341 722.254 638.064C729.556 646.595 734.118 656.454 735.53 666.758C736.942 677.062 735.16 687.487 730.344 697.098C728.452 700.936 726.652 703.437 724.842 704.745L724.489 705ZM181.786 701.918L674.472 700.713C709.249 700.628 734.831 673.547 724.526 646.752C723.553 644.072 722.098 641.521 720.21 639.181C713.127 630.727 703.588 623.801 692.423 619.006C681.258 614.211 668.809 611.694 656.161 611.674L210.847 610.992H210.698C205.044 611.144 199.468 612.106 194.23 613.832C165.466 622.613 146.231 644.684 144.632 669.461C144.612 669.776 144.591 670.092 144.571 670.408C144.32 674.338 145.031 678.269 146.663 681.978C148.296 685.687 150.818 689.1 154.085 692.022C157.353 694.944 161.301 697.319 165.707 699.01C170.112 700.701 174.886 701.676 179.758 701.878C180.434 701.907 181.11 701.92 181.786 701.918L181.786 701.918Z" fill="#7986CB"/>
<path d="M419.152 633.313C419.43 633.662 419.783 633.942 420.185 634.135C420.587 634.327 421.027 634.426 421.472 634.423H583.812C584.256 634.423 584.694 634.323 585.095 634.132C585.496 633.941 585.849 633.663 586.128 633.318C586.408 632.973 586.607 632.57 586.712 632.139C586.816 631.707 586.823 631.258 586.732 630.823L584.212 618.853C584.108 618.365 583.883 617.911 583.558 617.532C583.233 617.153 582.819 616.861 582.352 616.683C582.014 616.551 581.655 616.483 581.292 616.483H423.982C423.619 616.483 423.26 616.551 422.922 616.683C422.456 616.861 422.041 617.153 421.716 617.532C421.391 617.911 421.167 618.365 421.062 618.853L418.542 630.823C418.452 631.258 418.461 631.706 418.566 632.137C418.672 632.568 418.872 632.97 419.152 633.313V633.313Z" fill="#2F2E41"/>
<path d="M470.032 524.873V627.433H541.882V524.873C541.883 524.136 541.648 523.417 541.211 522.823C540.773 522.229 540.157 521.791 539.452 521.573C539.12 521.464 538.772 521.41 538.422 521.413H473.502C472.584 521.411 471.702 521.775 471.051 522.423C470.401 523.071 470.034 523.951 470.032 524.87V524.873V524.873ZM498.072 560.113C498.091 558.092 498.908 556.159 500.344 554.736C501.78 553.313 503.72 552.515 505.742 552.515C507.764 552.515 509.704 553.313 511.14 554.736C512.577 556.159 513.393 558.092 513.412 560.113V572.013C513.402 574.041 512.589 575.982 511.152 577.411C509.715 578.841 507.77 579.644 505.742 579.644C503.715 579.644 501.77 578.841 500.333 577.411C498.895 575.982 498.083 574.041 498.072 572.013V560.113Z" fill="#2F2E41"/>
<path d="M194.849 564.502C192.776 550.538 192.228 536.39 193.216 522.307L194.849 499C185.849 516.908 187.883 540.479 194.849 564.502V564.502Z" fill="#CACACA"/>
<path d="M201.867 568.401C200.869 560.069 200.606 551.664 201.081 543.285L201.867 529.412C197.537 540.072 198.515 554.102 201.867 568.401Z" fill="#CACACA"/>
<path d="M233.062 585.559V593.357C233.059 593.976 232.811 594.569 232.373 595.007C231.935 595.445 231.342 595.693 230.723 595.696H226.824C226.721 595.696 226.62 595.715 226.525 595.755C226.43 595.794 226.344 595.851 226.271 595.924C226.199 595.996 226.141 596.082 226.102 596.177C226.063 596.272 226.043 596.373 226.044 596.476V660.419C226.041 661.038 225.793 661.631 225.355 662.069C224.917 662.507 224.324 662.755 223.704 662.758H176.137C175.517 662.758 174.922 662.511 174.484 662.072C174.045 661.634 173.798 661.039 173.798 660.419V596.476C173.797 596.269 173.715 596.071 173.569 595.925C173.423 595.779 173.225 595.697 173.018 595.696H168.339C167.719 595.695 167.124 595.449 166.686 595.01C166.247 594.572 166 593.977 166 593.357V585.559C166 585.251 166.06 584.947 166.177 584.663C166.295 584.379 166.467 584.121 166.684 583.904C166.902 583.686 167.16 583.514 167.444 583.396C167.728 583.279 168.032 583.219 168.339 583.219H230.723C231.343 583.221 231.936 583.468 232.375 583.906C232.813 584.345 233.06 584.939 233.062 585.559V585.559Z" fill="#A0616A"/>
<path d="M226.114 597.333H173.868V599.673H226.114V597.333Z" fill="#E6E6E6"/>
<path d="M226.044 631.757C208.561 638.992 190.888 639.072 173.018 631.757V615.276C190.221 609.498 208.841 609.498 226.044 615.276V631.757Z" fill="#E6E6E6"/>
<defs>
<clipPath id="clip0_753_4797">
<rect width="930.986" height="797.335" fill="white" transform="translate(241 11)"/>
</clipPath>
</defs>
</svg>
