<svg width="556" height="427" viewBox="0 0 556 427" fill="none" xmlns="http://www.w3.org/2000/svg">
<path d="M28.3449 417.1L4.35037 374.699L28.356 421.719L28.369 426.55C30.0808 426.528 31.7753 426.455 33.4525 426.331L31.4954 364.267L31.5212 363.787L31.4771 363.696L31.2908 357.831L56.3791 311.36L31.2648 353.439L31.1897 354.681L29.7113 307.79L51.2793 259.709L29.5427 299.55L28.5316 202.357L28.527 202.033L28.5235 202.352L28.0312 278.982L7.4218 248.321L28.0495 285.582L28.1451 327.553L9.02253 287.018L28.1557 333.724L28.2085 357.062L0.431335 300.622L28.2304 365.203L28.3449 417.1Z" fill="#B1BCFF"/>
<path d="M523.524 417.1L499.53 374.699L523.535 421.719L523.548 426.55C525.26 426.528 526.955 426.455 528.632 426.331L526.675 364.267L526.7 363.787L526.656 363.696L526.47 357.831L551.558 311.36L526.444 353.439L526.369 354.681L524.891 307.79L546.459 259.709L524.722 299.55L523.711 202.357L523.706 202.033L523.703 202.352L523.21 278.982L502.601 248.321L523.229 285.582L523.324 327.553L504.202 287.018L523.335 333.724L523.388 357.062L495.611 300.622L523.41 365.203L523.524 417.1Z" fill="#B1BCFF"/>
<path d="M362.08 71.5022C366.198 71.4969 370.18 73.1592 373.291 76.1829C375.749 75.4306 378.326 75.3037 380.834 75.8115C382.91 72.4358 385.894 69.8925 389.352 68.553C392.81 67.2135 396.559 67.1481 400.053 68.3663C403.546 69.5845 406.6 72.0226 408.769 75.3242C410.937 78.6258 412.107 82.618 412.107 86.7175H345.303C346.122 82.4124 348.235 78.5528 351.289 75.7834C354.342 73.0141 358.151 71.5028 362.08 71.5022V71.5022Z" fill="#E2E2E2"/>
<path d="M263.331 131.599C267.192 131.594 270.925 133.181 273.842 136.067C276.146 135.349 278.562 135.228 280.913 135.712C282.859 132.49 285.658 130.062 288.899 128.784C292.141 127.505 295.656 127.443 298.931 128.606C302.206 129.769 305.069 132.096 307.102 135.247C309.135 138.399 310.232 142.21 310.232 146.123H247.603C248.371 142.013 250.352 138.329 253.215 135.686C256.078 133.042 259.649 131.6 263.331 131.599V131.599Z" fill="#E2E2E2"/>
<path d="M163.756 32.0079C167.771 32.0028 171.653 33.5896 174.686 36.4758C177.083 35.7578 179.596 35.6367 182.041 36.1214C184.065 32.8991 186.975 30.4714 190.346 29.1928C193.717 27.9142 197.373 27.8517 200.779 29.0146C204.185 30.1774 207.163 32.5047 209.277 35.6562C211.392 38.8078 212.532 42.6185 212.532 46.5316H147.399C148.197 42.4222 150.257 38.738 153.234 36.0945C156.212 33.451 159.926 32.0085 163.756 32.0079V32.0079Z" fill="#E2E2E2"/>
<path d="M208.357 424.803H369.519V216.885L208.357 216.885L208.357 424.803Z" fill="#3F3D56"/>
<path d="M266.809 424.803H311.067V382.87H266.809V424.803Z" fill="#E2E2E2"/>
<path d="M167.44 147.87H186.645L185.96 116.236V116.224L183.446 0.230469C181.518 1.52446 179.302 2.20916 177.042 2.20916C174.783 2.20916 172.567 1.52446 170.639 0.230469L168.126 116.224V116.236L167.44 147.87Z" fill="#303F9F"/>
<path d="M133.203 171.041V424.803H220.882V167.519L200.529 168.335V116.42H153.555V170.225L133.203 171.041Z" fill="#303F9F"/>
<path d="M391.231 147.87H410.436L407.236 0.230469C403.097 1.86348 398.57 1.86348 394.432 0.230469L391.231 147.87Z" fill="#303F9F"/>
<path d="M357.829 171.041V424.803H445.508V167.519L438.306 167.811L425.148 168.335V116.42H378.178V170.225L357.829 171.041Z" fill="#303F9F"/>
<path d="M312.737 266.68H334.448V242.219H312.737V266.68Z" fill="white"/>
<path d="M278.5 266.68H300.211V242.219H278.5V266.68Z" fill="white"/>
<path d="M243.428 266.68H265.139V242.219H243.428V266.68Z" fill="white"/>
<path d="M312.737 305.119H334.448V280.658H312.737V305.119Z" fill="white"/>
<path d="M278.5 305.119H300.211V280.658H278.5V305.119Z" fill="white"/>
<path d="M243.428 305.119H265.139V280.658H243.428V305.119Z" fill="white"/>
<path d="M312.737 344.431H334.448V319.97H312.737V344.431Z" fill="white"/>
<path d="M278.5 344.431H300.211V319.97H278.5V344.431Z" fill="white"/>
<path d="M243.428 344.431H265.139V319.97H243.428V344.431Z" fill="white"/>
<path d="M165.769 256.197H187.481V232.61H165.769V256.197Z" fill="white"/>
<path d="M165.769 295.509H187.481V271.048H165.769V295.509Z" fill="white"/>
<path d="M165.769 333.948H187.481V310.361H165.769V333.948Z" fill="white"/>
<path d="M165.769 373.26H187.481V348.799H165.769V373.26Z" fill="white"/>
<path d="M390.396 256.197H411.272V232.61H390.396V256.197Z" fill="white"/>
<path d="M390.396 295.509H411.272V271.048H390.396V295.509Z" fill="white"/>
<path d="M390.396 333.948H411.272V310.361H390.396V333.948Z" fill="white"/>
<path d="M390.396 373.26H411.272V348.799H390.396V373.26Z" fill="white"/>
<path d="M555.734 423.929H0.431335V426.55H555.734V423.929Z" fill="#3F3D56"/>
</svg>
