<svg width="53" height="72" viewBox="0 0 53 72" fill="none" xmlns="http://www.w3.org/2000/svg">
<path d="M12.1351 30.4923C14.765 12.6346 34.742 13.8067 46.4464 18.2425C48.6813 19.0894 49.6364 21.6109 48.8254 23.8592C47.5607 27.3653 42.843 28.1985 39.7502 26.1183C32.4406 21.2018 24.2662 21.0677 20.8393 27.5361C20.6757 27.8449 20.5505 28.1848 20.4747 28.5259C18.5252 37.2957 29.3939 40.0158 35.7227 40.4216C55.5606 41.911 54.9963 56.4276 50.2382 64.0038C41.0451 77.4085 21.9577 71.0399 12.1351 65.8656L11.2033 65.2354C10.5025 64.7615 9.99579 64.051 9.77589 63.234C9.4019 61.8446 9.91098 60.3673 11.0616 59.5033L17.1264 54.949C20.5166 52.4031 25.3651 54.1226 26.9641 58.0492C33.6713 74.5197 40.4957 64.9799 43.3697 60.0348C43.516 59.7829 43.6437 59.5163 43.7405 59.2415C47.1187 49.6488 35.4296 46.8314 29.0698 46.6275C14.0705 45.1381 11.4499 36.569 12.1351 30.4923Z" fill="#F5F7FF"/>
<path d="M21.1537 17.0805C20.8553 17.3916 20.4539 17.5973 20.0114 17.6658L14.1724 18.5708C12.7939 18.7844 12.0894 20.2269 12.7887 21.4041L13.9004 23.2757C15.0729 25.2496 19.5216 25.0575 23.8366 22.8465C28.1517 20.6354 30.6995 17.2423 29.5271 15.2684C29.5177 15.2526 29.5036 15.2394 29.4945 15.2248L28.4103 13.3994C27.711 12.2222 26.0216 12.0064 25.0918 12.9755L21.1537 17.0805Z" fill="#4A62EC"/>
<path d="M5.83153 16.9526C5.28442 17.6187 5.88787 18.6059 6.78319 18.5095L7.32649 18.451C7.56619 18.4252 7.73418 18.2221 7.70522 17.9932V17.9932C7.68558 17.8379 7.75706 17.6878 7.89135 17.6023L8.59316 17.1553C8.62476 17.1352 8.66514 17.131 8.7017 17.1441V17.1441C8.78624 17.1743 8.81063 17.2774 8.74683 17.3348L8.32959 17.71C8.21032 17.8172 8.16023 17.9773 8.19724 18.133L8.20911 18.183C8.23524 18.2929 8.22602 18.4054 8.18366 18.5085C7.82034 19.3929 6.1043 23.7937 7.04569 25.8465C7.16628 26.1095 7.45461 26.2569 7.75028 26.2253C8.27157 26.1697 9.11017 25.9529 9.64087 25.1668C9.72639 25.0401 9.76153 24.8883 9.76152 24.7356L9.76099 18.5923C9.76099 18.4996 9.73539 18.4078 9.68675 18.3259V18.3259C9.55876 18.1105 9.59923 17.8448 9.78486 17.682L10.7999 16.7916C10.9067 16.6978 11.0847 16.7592 11.1094 16.8984V16.8984C11.1185 16.9497 11.1033 17.0015 11.0679 17.0397L10.5422 17.6075C10.3648 17.7991 10.5401 18.1049 10.8105 18.0757V18.0757L19.7984 16.6821C20.0196 16.6478 20.2203 16.5449 20.3695 16.3894L26.4317 10.0704L28.9504 7.16554C29.5245 6.50342 28.9383 5.48723 28.026 5.56306L14.678 6.67252C14.4023 6.69544 14.1518 6.82377 13.9839 7.02819L5.83153 16.9526Z" fill="#4A62EC"/>
</svg>
