<svg width="554" height="549" viewBox="0 0 554 549" fill="none" xmlns="http://www.w3.org/2000/svg">
<path d="M67.4291 319.453C66.5298 314.474 69.1579 309.768 73.5025 307.958C75.3131 307.204 77.0996 306.41 78.7493 305.35C119.897 278.917 186.78 274.624 262.287 277.747C186.78 263.479 118.411 251.739 84.9637 321.845C82.5746 326.852 76.421 329 71.6894 325.942C69.7886 324.713 68.2841 322.808 67.6274 320.342C67.5499 320.051 67.4836 319.754 67.4291 319.453L67.4291 319.453L67.4291 319.453L67.4291 319.453Z" fill="#B1BCFF"/>
<path d="M293.752 57.2035C298.559 57.5544 302.469 61.1504 303.496 65.732L303.612 66.2489C304.645 70.8472 303.944 75.5885 301.78 79.6622C270.804 137.968 349.228 146.508 295.652 261.123L295.652 261.123C312.165 188.77 285.583 57.4939 292.534 57.1857C292.934 57.1679 293.341 57.1735 293.752 57.2035L293.752 57.2035L293.752 57.2035Z" fill="#B1BCFF"/>
<path d="M504.53 259.61C504.896 264.503 501.964 268.78 497.645 270.23L497.157 270.394C492.822 271.852 488.092 271.569 483.798 269.747C422.332 243.666 425.567 323.735 305.819 279.864L305.819 279.864C378.859 290.057 503.041 251.376 504.367 258.377C504.444 258.78 504.498 259.192 504.53 259.61L504.53 259.61L504.53 259.61L504.53 259.61Z" fill="#B1BCFF"/>
<path d="M437.685 293.241C436.423 295.349 433.342 296.877 430.274 297.074L429.927 297.096C426.848 297.295 424.056 296.718 421.996 295.531C392.512 278.545 370.187 312.77 310.642 282.618L310.642 282.618C351.988 293.993 439.277 289.61 437.96 292.704C437.884 292.882 437.793 293.061 437.685 293.241L437.685 293.241Z" fill="#B1BCFF"/>
<path d="M395.42 183.327C396.162 185.732 395.31 189.128 393.488 191.602L393.283 191.881C391.454 194.366 389.24 196.1 387.046 196.858C355.644 207.711 366.514 248.163 306.149 272.925L306.149 272.925C341.028 249.186 393.769 179.627 395.2 182.749C395.283 182.929 395.356 183.122 395.42 183.327L395.42 183.327Z" fill="#B1BCFF"/>
<path d="M184.361 476.368C180.213 473.764 178.367 468.768 179.561 464.294L179.695 463.789C180.891 459.298 183.708 455.512 187.528 453.006C242.207 417.136 175.84 372.209 276.766 298.199L276.766 298.199C228.571 353.196 191.818 480.021 185.444 476.965C185.077 476.789 184.715 476.59 184.361 476.368L184.361 476.368L184.361 476.368Z" fill="#B1BCFF"/>
<path d="M412.908 347.574C411.616 350.206 408.751 351.429 406.006 350.742L405.696 350.664C402.94 349.976 400.503 348.264 398.766 345.906C373.909 312.157 351.288 354.311 300.751 292.123L300.751 292.123C336.613 321.555 414.618 342.856 413.196 346.888C413.114 347.12 413.018 347.349 412.908 347.574L412.908 347.574Z" fill="#B1BCFF"/>
<path d="M382.561 442.948C379.351 444.78 375.381 444.056 372.844 441.433L372.558 441.137C370.01 438.506 368.51 435.033 368.217 431.377C364.025 379.053 310.504 407.067 297.598 307.358L297.598 307.358C316.783 362.858 387.651 439.24 383.345 442.436C383.097 442.62 382.836 442.791 382.561 442.948V442.948L382.561 442.948Z" fill="#303F9F"/>
<path d="M233.979 451.392C230.472 450.003 228.399 446.444 228.709 442.84L228.744 442.433C229.054 438.815 230.692 435.501 233.265 433.021C270.098 397.523 213.558 372.795 280.5 301.293L280.5 301.293C251.162 350.504 240.145 453.102 234.884 451.692C234.581 451.611 234.278 451.511 233.979 451.392L233.979 451.392Z" fill="#303F9F"/>
<path d="M239.318 399.463C237.292 398.928 236.187 397.036 236.493 394.939L236.527 394.703C236.832 392.598 237.913 390.567 239.517 388.946C262.485 365.744 229.908 355.782 271.887 309.593C252.885 340.12 242.904 399.981 239.842 399.567C239.666 399.543 239.491 399.508 239.318 399.462L239.318 399.463Z" fill="#303F9F"/>
<path d="M292.804 405.194C290.744 405.413 289.068 404.018 288.626 401.924L288.576 401.688C288.132 399.587 288.431 397.279 289.357 395.17C302.612 364.992 269.005 367.222 291.926 308.485C284.873 344.177 296.305 404.402 293.326 405.105C293.155 405.146 292.981 405.176 292.804 405.194L292.804 405.194Z" fill="#B1BCFF"/>
<path d="M113.405 347.474L125.021 358.432L138.532 350.87L132.2 365.204L143.815 376.162L128.286 374.063L121.954 388.398L118.688 372.766L103.159 370.667L116.67 363.105L113.405 347.474Z" fill="#303F9F"/>
<path d="M210.42 83.9265L222.035 94.8845L235.547 87.3227L229.214 101.657L240.83 112.615L225.301 110.516L218.968 124.85L215.703 109.219L200.174 107.12L213.685 99.5579L210.42 83.9265Z" fill="#B1BCFF"/>
<path d="M389.124 171.301L400.74 182.259L414.251 174.698L407.919 189.032L419.534 199.99L404.005 197.891L397.673 212.225L394.407 196.594L378.878 194.495L392.389 186.933L389.124 171.301Z" fill="#303F9F"/>
<path d="M270.331 428.298L281.947 439.256L295.458 431.695L289.126 446.029L300.741 456.987L285.212 454.888L278.88 469.222L275.614 453.59L260.085 451.492L273.596 443.93L270.331 428.298Z" fill="#303F9F"/>
<path d="M264.995 240.772L276.611 251.73L290.122 244.168L283.79 258.502L295.406 269.46L279.877 267.361L273.544 281.696L270.279 266.064L254.749 263.965L268.261 256.403L264.995 240.772Z" fill="#303F9F"/>
<path d="M289.449 39.6962L301.065 50.6543L314.576 43.0925L308.244 57.4267L319.86 68.3847L304.33 66.2857L297.998 80.6199L294.733 64.9885L279.203 62.8895L292.715 55.3277L289.449 39.6962Z" fill="#B1BCFF"/>
<path d="M164.199 454.849L176.692 464.747L189.458 455.979L184.412 470.864L196.905 480.761L181.294 480.063L176.248 494.948L171.646 479.631L156.035 478.933L168.801 470.165L164.199 454.849Z" fill="#B1BCFF"/>
<path d="M142.316 144.534C144.058 141.928 147.266 141.233 150.076 142.614L150.393 142.77C153.213 144.155 155.551 146.596 157.056 149.588C178.587 192.42 208.533 151.128 253.22 231.131L253.22 231.131C219.421 190.551 139.835 149.342 141.913 145.224C142.033 144.987 142.167 144.756 142.316 144.534L142.316 144.534Z" fill="#303F9F"/>
<path d="M141.751 226.198C142.05 224.198 143.715 223.014 145.714 223.189L145.94 223.208C147.946 223.383 149.96 224.315 151.643 225.78C175.722 246.759 181.813 214.506 229.373 252.63C198.815 235.933 141.623 229.715 141.705 226.715C141.71 226.542 141.725 226.369 141.751 226.198L141.751 226.198Z" fill="#B1BCFF"/>
<path d="M153.332 319.866C152.483 318.002 153.193 316.055 154.918 315.071L155.112 314.96C156.843 313.972 158.994 313.621 161.166 313.911C192.255 318.053 179.597 287.275 239.193 292.65C205.163 295.805 155.15 322.918 153.577 320.329C153.487 320.18 153.405 320.025 153.332 319.866L153.332 319.866Z" fill="#B1BCFF"/>
</svg>
