<svg width="195" height="39" viewBox="0 0 195 39" fill="none" xmlns="http://www.w3.org/2000/svg">
<path d="M5.26613 14.0242C6.41058 5.78834 15.1246 6.3531 20.198 8.40708C21.1548 8.79447 21.5607 9.87995 21.2281 10.8572C20.6776 12.4747 18.4833 12.8536 17.0731 11.8888C14.0321 9.80819 10.6901 9.74667 9.1669 12.4329C9.0021 12.7235 8.8898 13.046 8.83833 13.3761C8.2411 17.2066 12.8149 18.4083 15.5024 18.591C24.1113 19.276 23.8665 25.9526 21.8016 29.4371C17.8121 35.6022 9.52882 32.6731 5.26613 30.2934L4.88699 30.0216C4.5662 29.7917 4.33699 29.4558 4.23984 29.0732C4.07781 28.4352 4.30477 27.7615 4.8198 27.3516L5.89981 26.4921C8.06069 24.7723 11.1776 25.9185 12.441 28.3742C15.1769 33.6921 17.8253 29.4678 18.9145 27.4391C20.5943 22.8723 15.4149 21.5404 12.6152 21.4452C6.10602 20.7602 4.96878 16.819 5.26613 14.0242Z" fill="#435DEB"/>
<path d="M9.44733 7.56042C9.14492 7.8945 8.73614 8.1165 8.28776 8.19014L7.16223 8.37501C6.07184 8.55411 5.49423 9.7452 6.03224 10.7052V10.7052C6.54106 11.613 8.47167 11.5247 10.3442 10.5077C12.2168 9.49081 13.3225 7.93024 12.8137 7.02238C12.8096 7.01512 12.8035 7.00903 12.7996 7.00231V7.00231C12.2674 6.05276 10.9502 5.90018 10.2227 6.70382L9.44733 7.56042Z" fill="#435DEB"/>
<path d="M2.5205 7.81014C2.2823 8.11746 2.53757 8.55936 2.92759 8.51486L3.17437 8.48671C3.28056 8.4746 3.35625 8.37982 3.3437 8.27469V8.27469C3.33525 8.20392 3.36705 8.13461 3.42633 8.0946L3.72794 7.89101C3.74237 7.88127 3.76076 7.87917 3.77717 7.8854V7.8854C3.81387 7.89932 3.82372 7.94617 3.79558 7.97298L3.61642 8.14374C3.56364 8.19405 3.5412 8.268 3.55715 8.33913L3.56261 8.36348C3.57387 8.41367 3.56976 8.4653 3.55123 8.51312C3.40512 8.89014 2.75872 10.6462 2.9838 11.6553C3.04617 11.935 3.33337 12.0971 3.60823 12.0101C3.77422 11.9576 3.95797 11.8602 4.10638 11.6813C4.2059 11.5613 4.23617 11.4023 4.23616 11.2466L4.23594 8.55067C4.23594 8.50832 4.22501 8.46659 4.20419 8.42944V8.42944C4.14828 8.32969 4.16756 8.20565 4.25104 8.12804L4.68403 7.72548C4.73165 7.6812 4.81035 7.70788 4.82109 7.77195V7.77195C4.82506 7.79561 4.81823 7.81973 4.80245 7.8378L4.57509 8.09804C4.49651 8.18799 4.57168 8.32723 4.69141 8.31351V8.31351L8.39364 7.70514C8.6178 7.6683 8.82216 7.55731 8.97335 7.39028L11.4705 4.63166L11.7486 4.29171C12.3064 3.60987 11.7546 2.59454 10.8687 2.67258L6.61978 3.04687C6.34101 3.07143 6.08606 3.20989 5.91629 3.42892L2.5205 7.81014Z" fill="#435DEB"/>
<path d="M31.696 30.216C30.736 30.216 29.928 30.048 29.272 29.712C28.616 29.376 28.128 28.88 27.808 28.224C27.488 27.568 27.328 26.768 27.328 25.824V20.16H25.888C25.568 20.16 25.32 20.08 25.144 19.92C24.968 19.744 24.88 19.512 24.88 19.224C24.88 18.92 24.968 18.688 25.144 18.528C25.32 18.368 25.568 18.288 25.888 18.288H27.328V15.816C27.328 15.416 27.432 15.112 27.64 14.904C27.864 14.696 28.168 14.592 28.552 14.592C28.936 14.592 29.232 14.696 29.44 14.904C29.648 15.112 29.752 15.416 29.752 15.816V18.288H32.56C32.88 18.288 33.128 18.368 33.304 18.528C33.48 18.688 33.568 18.92 33.568 19.224C33.568 19.512 33.48 19.744 33.304 19.92C33.128 20.08 32.88 20.16 32.56 20.16H29.752V25.632C29.752 26.48 29.928 27.12 30.28 27.552C30.648 27.984 31.24 28.2 32.056 28.2C32.344 28.2 32.592 28.176 32.8 28.128C33.024 28.064 33.208 28.024 33.352 28.008C33.528 28.008 33.672 28.072 33.784 28.2C33.896 28.312 33.952 28.536 33.952 28.872C33.952 29.112 33.904 29.336 33.808 29.544C33.728 29.752 33.576 29.888 33.352 29.952C33.16 30.016 32.896 30.072 32.56 30.12C32.24 30.184 31.952 30.216 31.696 30.216ZM40.8484 30.216C39.5684 30.216 38.4644 29.976 37.5364 29.496C36.6244 29 35.9124 28.304 35.4004 27.408C34.9044 26.496 34.6564 25.416 34.6564 24.168C34.6564 22.952 34.9044 21.888 35.4004 20.976C35.8964 20.064 36.5764 19.352 37.4404 18.84C38.3044 18.328 39.2884 18.072 40.3924 18.072C41.2084 18.072 41.9364 18.208 42.5764 18.48C43.2164 18.736 43.7604 19.12 44.2084 19.632C44.6724 20.128 45.0164 20.736 45.2404 21.456C45.4804 22.176 45.6004 22.984 45.6004 23.88C45.6004 24.152 45.5204 24.36 45.3604 24.504C45.2004 24.632 44.9604 24.696 44.6404 24.696H36.5764V23.208H43.9684L43.5604 23.544C43.5604 22.744 43.4404 22.064 43.2004 21.504C42.9764 20.944 42.6324 20.52 42.1684 20.232C41.7204 19.928 41.1604 19.776 40.4884 19.776C39.7364 19.776 39.0964 19.952 38.5684 20.304C38.0564 20.656 37.6644 21.144 37.3924 21.768C37.1204 22.392 36.9844 23.12 36.9844 23.952V24.096C36.9844 25.504 37.3124 26.568 37.9684 27.288C38.6404 27.992 39.6084 28.344 40.8724 28.344C41.3524 28.344 41.8564 28.28 42.3844 28.152C42.9284 28.024 43.4404 27.808 43.9204 27.504C44.1924 27.344 44.4324 27.272 44.6404 27.288C44.8644 27.304 45.0404 27.376 45.1684 27.504C45.3124 27.632 45.4004 27.792 45.4324 27.984C45.4644 28.176 45.4324 28.376 45.3364 28.584C45.2404 28.776 45.0724 28.952 44.8324 29.112C44.2884 29.48 43.6564 29.76 42.9364 29.952C42.2164 30.128 41.5204 30.216 40.8484 30.216ZM51.9871 30.216C51.1711 30.216 50.4351 30.056 49.7791 29.736C49.1391 29.416 48.6351 28.984 48.2671 28.44C47.8991 27.896 47.7151 27.28 47.7151 26.592C47.7151 25.728 47.9311 25.048 48.3631 24.552C48.8111 24.04 49.5391 23.68 50.5471 23.472C51.5711 23.248 52.9471 23.136 54.6751 23.136H55.8031V24.624H54.6991C53.5471 24.624 52.6351 24.68 51.9631 24.792C51.2911 24.904 50.8111 25.096 50.5231 25.368C50.2511 25.624 50.1151 25.984 50.1151 26.448C50.1151 27.056 50.3231 27.552 50.7391 27.936C51.1551 28.304 51.7311 28.488 52.4671 28.488C53.0591 28.488 53.5791 28.352 54.0271 28.08C54.4751 27.792 54.8271 27.408 55.0831 26.928C55.3551 26.448 55.4911 25.896 55.4911 25.272V22.512C55.4911 21.6 55.2991 20.944 54.9151 20.544C54.5311 20.144 53.8991 19.944 53.0191 19.944C52.5071 19.944 51.9711 20.008 51.4111 20.136C50.8671 20.264 50.2991 20.48 49.7071 20.784C49.4351 20.912 49.2031 20.952 49.0111 20.904C48.8191 20.856 48.6671 20.752 48.5551 20.592C48.4431 20.416 48.3791 20.232 48.3631 20.04C48.3631 19.832 48.4111 19.632 48.5071 19.44C48.6191 19.248 48.8031 19.104 49.0591 19.008C49.7631 18.672 50.4591 18.432 51.1471 18.288C51.8351 18.144 52.4831 18.072 53.0911 18.072C54.1631 18.072 55.0431 18.24 55.7311 18.576C56.4351 18.912 56.9551 19.424 57.2911 20.112C57.6271 20.8 57.7951 21.688 57.7951 22.776V28.944C57.7951 29.328 57.6991 29.632 57.5071 29.856C57.3151 30.064 57.0351 30.168 56.6671 30.168C56.3151 30.168 56.0351 30.064 55.8271 29.856C55.6191 29.632 55.5151 29.328 55.5151 28.944V27.384H55.7311C55.6031 27.976 55.3631 28.488 55.0111 28.92C54.6751 29.336 54.2511 29.656 53.7391 29.88C53.2271 30.104 52.6431 30.216 51.9871 30.216ZM65.5977 30.216C64.5737 30.216 63.6697 29.976 62.8857 29.496C62.1177 29 61.5177 28.296 61.0857 27.384C60.6537 26.456 60.4377 25.376 60.4377 24.144C60.4377 22.88 60.6537 21.8 61.0857 20.904C61.5177 20.008 62.1177 19.312 62.8857 18.816C63.6697 18.32 64.5737 18.072 65.5977 18.072C66.6217 18.072 67.5017 18.328 68.2377 18.84C68.9897 19.336 69.4937 20.008 69.7497 20.856H69.4857V14.136C69.4857 13.736 69.5897 13.432 69.7977 13.224C70.0057 13.016 70.3017 12.912 70.6857 12.912C71.0697 12.912 71.3657 13.016 71.5737 13.224C71.7977 13.432 71.9097 13.736 71.9097 14.136V28.944C71.9097 29.328 71.8057 29.632 71.5977 29.856C71.3897 30.064 71.0937 30.168 70.7097 30.168C70.3257 30.168 70.0297 30.064 69.8217 29.856C69.6137 29.632 69.5097 29.328 69.5097 28.944V26.832L69.7737 27.36C69.5177 28.224 69.0137 28.92 68.2617 29.448C67.5257 29.96 66.6377 30.216 65.5977 30.216ZM66.2217 28.344C66.8777 28.344 67.4537 28.184 67.9497 27.864C68.4457 27.544 68.8297 27.072 69.1017 26.448C69.3897 25.824 69.5337 25.056 69.5337 24.144C69.5337 22.768 69.2297 21.728 68.6217 21.024C68.0137 20.32 67.2137 19.968 66.2217 19.968C65.5497 19.968 64.9657 20.128 64.4697 20.448C63.9737 20.752 63.5817 21.216 63.2937 21.84C63.0217 22.464 62.8857 23.232 62.8857 24.144C62.8857 25.504 63.1897 26.544 63.7977 27.264C64.4057 27.984 65.2137 28.344 66.2217 28.344ZM78.0734 34.488C77.7854 34.488 77.5454 34.408 77.3534 34.248C77.1774 34.104 77.0734 33.904 77.0414 33.648C77.0254 33.408 77.0734 33.144 77.1854 32.856L78.8174 29.184V30.216L74.3294 19.776C74.2174 19.488 74.1774 19.216 74.2094 18.96C74.2414 18.704 74.3614 18.504 74.5694 18.36C74.7774 18.2 75.0574 18.12 75.4094 18.12C75.7134 18.12 75.9534 18.192 76.1294 18.336C76.3054 18.48 76.4654 18.728 76.6094 19.08L80.2334 28.032H79.5614L83.2334 19.08C83.3774 18.712 83.5454 18.464 83.7374 18.336C83.9294 18.192 84.1934 18.12 84.5294 18.12C84.8174 18.12 85.0414 18.2 85.2014 18.36C85.3774 18.504 85.4814 18.704 85.5134 18.96C85.5614 19.2 85.5214 19.464 85.3934 19.752L79.3934 33.552C79.2334 33.92 79.0494 34.168 78.8414 34.296C78.6494 34.424 78.3934 34.488 78.0734 34.488ZM94.2783 30.168C93.9583 30.168 93.7023 30.096 93.5103 29.952C93.3183 29.808 93.2063 29.616 93.1743 29.376C93.1423 29.136 93.1903 28.864 93.3183 28.56L99.8223 13.968C99.9823 13.584 100.182 13.312 100.422 13.152C100.678 12.992 100.958 12.912 101.262 12.912C101.55 12.912 101.814 12.992 102.054 13.152C102.31 13.312 102.518 13.584 102.678 13.968L109.182 28.56C109.326 28.864 109.382 29.144 109.35 29.4C109.318 29.64 109.214 29.832 109.038 29.976C108.862 30.104 108.614 30.168 108.294 30.168C107.942 30.168 107.662 30.08 107.454 29.904C107.246 29.728 107.062 29.456 106.902 29.088L105.222 25.2L106.35 25.872H96.1263L97.2303 25.2L95.5742 29.088C95.4143 29.472 95.2383 29.752 95.0463 29.928C94.8543 30.088 94.5983 30.168 94.2783 30.168ZM101.214 15.84L97.5903 24.432L96.9903 23.856H105.462L104.91 24.432L101.262 15.84H101.214ZM116.825 30.216C115.625 30.216 114.585 29.968 113.705 29.472C112.841 28.96 112.169 28.248 111.689 27.336C111.209 26.408 110.969 25.32 110.969 24.072C110.969 23.144 111.105 22.312 111.377 21.576C111.649 20.824 112.033 20.192 112.529 19.68C113.041 19.168 113.657 18.776 114.377 18.504C115.113 18.216 115.929 18.072 116.825 18.072C117.385 18.072 117.969 18.16 118.577 18.336C119.201 18.496 119.777 18.768 120.305 19.152C120.513 19.28 120.641 19.44 120.689 19.632C120.753 19.808 120.761 19.992 120.713 20.184C120.681 20.376 120.593 20.544 120.449 20.688C120.321 20.816 120.161 20.896 119.969 20.928C119.777 20.944 119.569 20.888 119.345 20.76C118.961 20.488 118.569 20.296 118.169 20.184C117.769 20.056 117.385 19.992 117.017 19.992C116.441 19.992 115.929 20.088 115.481 20.28C115.049 20.456 114.681 20.72 114.377 21.072C114.073 21.408 113.841 21.832 113.681 22.344C113.537 22.856 113.465 23.44 113.465 24.096C113.465 25.408 113.769 26.44 114.377 27.192C115.001 27.928 115.881 28.296 117.017 28.296C117.385 28.296 117.769 28.24 118.169 28.128C118.569 28.016 118.961 27.824 119.345 27.552C119.569 27.424 119.777 27.376 119.969 27.408C120.161 27.44 120.313 27.528 120.425 27.672C120.553 27.8 120.633 27.96 120.665 28.152C120.713 28.328 120.705 28.512 120.641 28.704C120.577 28.896 120.441 29.056 120.233 29.184C119.721 29.552 119.161 29.816 118.553 29.976C117.961 30.136 117.385 30.216 116.825 30.216ZM126.518 30.216C125.702 30.216 124.966 30.056 124.31 29.736C123.67 29.416 123.166 28.984 122.798 28.44C122.43 27.896 122.246 27.28 122.246 26.592C122.246 25.728 122.462 25.048 122.894 24.552C123.342 24.04 124.07 23.68 125.078 23.472C126.102 23.248 127.478 23.136 129.206 23.136H130.334V24.624H129.23C128.078 24.624 127.166 24.68 126.494 24.792C125.822 24.904 125.342 25.096 125.054 25.368C124.782 25.624 124.646 25.984 124.646 26.448C124.646 27.056 124.854 27.552 125.27 27.936C125.686 28.304 126.262 28.488 126.998 28.488C127.59 28.488 128.11 28.352 128.558 28.08C129.006 27.792 129.358 27.408 129.614 26.928C129.886 26.448 130.022 25.896 130.022 25.272V22.512C130.022 21.6 129.83 20.944 129.446 20.544C129.062 20.144 128.43 19.944 127.55 19.944C127.038 19.944 126.502 20.008 125.942 20.136C125.398 20.264 124.83 20.48 124.238 20.784C123.966 20.912 123.734 20.952 123.542 20.904C123.35 20.856 123.198 20.752 123.086 20.592C122.974 20.416 122.91 20.232 122.894 20.04C122.894 19.832 122.942 19.632 123.038 19.44C123.15 19.248 123.334 19.104 123.59 19.008C124.294 18.672 124.99 18.432 125.678 18.288C126.366 18.144 127.014 18.072 127.622 18.072C128.694 18.072 129.574 18.24 130.262 18.576C130.966 18.912 131.486 19.424 131.822 20.112C132.158 20.8 132.326 21.688 132.326 22.776V28.944C132.326 29.328 132.23 29.632 132.038 29.856C131.846 30.064 131.566 30.168 131.198 30.168C130.846 30.168 130.566 30.064 130.358 29.856C130.15 29.632 130.046 29.328 130.046 28.944V27.384H130.262C130.134 27.976 129.894 28.488 129.542 28.92C129.206 29.336 128.782 29.656 128.27 29.88C127.758 30.104 127.174 30.216 126.518 30.216ZM140.129 30.216C139.105 30.216 138.201 29.976 137.417 29.496C136.649 29 136.049 28.296 135.617 27.384C135.185 26.456 134.969 25.376 134.969 24.144C134.969 22.88 135.185 21.8 135.617 20.904C136.049 20.008 136.649 19.312 137.417 18.816C138.201 18.32 139.105 18.072 140.129 18.072C141.153 18.072 142.033 18.328 142.769 18.84C143.521 19.336 144.025 20.008 144.281 20.856H144.017V14.136C144.017 13.736 144.121 13.432 144.329 13.224C144.537 13.016 144.833 12.912 145.217 12.912C145.601 12.912 145.897 13.016 146.105 13.224C146.329 13.432 146.441 13.736 146.441 14.136V28.944C146.441 29.328 146.337 29.632 146.129 29.856C145.921 30.064 145.625 30.168 145.241 30.168C144.857 30.168 144.561 30.064 144.353 29.856C144.145 29.632 144.041 29.328 144.041 28.944V26.832L144.305 27.36C144.049 28.224 143.545 28.92 142.793 29.448C142.057 29.96 141.169 30.216 140.129 30.216ZM140.753 28.344C141.409 28.344 141.985 28.184 142.481 27.864C142.977 27.544 143.361 27.072 143.633 26.448C143.921 25.824 144.065 25.056 144.065 24.144C144.065 22.768 143.761 21.728 143.153 21.024C142.545 20.32 141.745 19.968 140.753 19.968C140.081 19.968 139.497 20.128 139.001 20.448C138.505 20.752 138.113 21.216 137.825 21.84C137.553 22.464 137.417 23.232 137.417 24.144C137.417 25.504 137.721 26.544 138.329 27.264C138.937 27.984 139.745 28.344 140.753 28.344ZM155.341 30.216C154.061 30.216 152.957 29.976 152.029 29.496C151.117 29 150.405 28.304 149.893 27.408C149.397 26.496 149.149 25.416 149.149 24.168C149.149 22.952 149.397 21.888 149.893 20.976C150.389 20.064 151.069 19.352 151.933 18.84C152.797 18.328 153.781 18.072 154.885 18.072C155.701 18.072 156.429 18.208 157.069 18.48C157.709 18.736 158.253 19.12 158.701 19.632C159.165 20.128 159.509 20.736 159.733 21.456C159.973 22.176 160.093 22.984 160.093 23.88C160.093 24.152 160.013 24.36 159.853 24.504C159.693 24.632 159.453 24.696 159.133 24.696H151.069V23.208H158.461L158.053 23.544C158.053 22.744 157.933 22.064 157.693 21.504C157.469 20.944 157.125 20.52 156.661 20.232C156.213 19.928 155.653 19.776 154.981 19.776C154.229 19.776 153.589 19.952 153.061 20.304C152.549 20.656 152.157 21.144 151.885 21.768C151.613 22.392 151.477 23.12 151.477 23.952V24.096C151.477 25.504 151.805 26.568 152.461 27.288C153.133 27.992 154.101 28.344 155.365 28.344C155.845 28.344 156.349 28.28 156.877 28.152C157.421 28.024 157.933 27.808 158.413 27.504C158.685 27.344 158.925 27.272 159.133 27.288C159.357 27.304 159.533 27.376 159.661 27.504C159.805 27.632 159.893 27.792 159.925 27.984C159.957 28.176 159.925 28.376 159.829 28.584C159.733 28.776 159.565 28.952 159.325 29.112C158.781 29.48 158.149 29.76 157.429 29.952C156.709 30.128 156.013 30.216 155.341 30.216ZM163.983 30.168C163.599 30.168 163.303 30.064 163.095 29.856C162.887 29.632 162.783 29.328 162.783 28.944V19.344C162.783 18.944 162.887 18.64 163.095 18.432C163.303 18.224 163.591 18.12 163.959 18.12C164.343 18.12 164.631 18.224 164.823 18.432C165.031 18.64 165.135 18.944 165.135 19.344V21.312L164.871 20.784C165.191 19.936 165.687 19.272 166.359 18.792C167.031 18.312 167.839 18.072 168.783 18.072C169.759 18.072 170.551 18.304 171.159 18.768C171.767 19.232 172.183 19.944 172.407 20.904H172.071C172.375 20.024 172.895 19.336 173.631 18.84C174.367 18.328 175.223 18.072 176.199 18.072C177.095 18.072 177.831 18.248 178.407 18.6C178.983 18.936 179.415 19.456 179.703 20.16C179.991 20.848 180.135 21.72 180.135 22.776V28.944C180.135 29.328 180.023 29.632 179.799 29.856C179.591 30.064 179.295 30.168 178.911 30.168C178.527 30.168 178.231 30.064 178.023 29.856C177.815 29.632 177.711 29.328 177.711 28.944V22.896C177.711 21.904 177.535 21.176 177.183 20.712C176.847 20.248 176.287 20.016 175.503 20.016C174.623 20.016 173.927 20.32 173.415 20.928C172.903 21.536 172.647 22.376 172.647 23.448V28.944C172.647 29.328 172.543 29.632 172.335 29.856C172.127 30.064 171.831 30.168 171.447 30.168C171.063 30.168 170.759 30.064 170.535 29.856C170.327 29.632 170.223 29.328 170.223 28.944V22.896C170.223 21.904 170.055 21.176 169.719 20.712C169.383 20.248 168.823 20.016 168.039 20.016C167.159 20.016 166.463 20.32 165.951 20.928C165.455 21.536 165.207 22.376 165.207 23.448V28.944C165.207 29.76 164.799 30.168 163.983 30.168ZM186.167 34.488C185.879 34.488 185.639 34.408 185.447 34.248C185.271 34.104 185.167 33.904 185.135 33.648C185.119 33.408 185.167 33.144 185.279 32.856L186.911 29.184V30.216L182.423 19.776C182.311 19.488 182.271 19.216 182.303 18.96C182.335 18.704 182.455 18.504 182.663 18.36C182.871 18.2 183.151 18.12 183.503 18.12C183.807 18.12 184.047 18.192 184.223 18.336C184.399 18.48 184.559 18.728 184.703 19.08L188.327 28.032H187.655L191.327 19.08C191.471 18.712 191.639 18.464 191.831 18.336C192.023 18.192 192.287 18.12 192.623 18.12C192.911 18.12 193.135 18.2 193.295 18.36C193.471 18.504 193.575 18.704 193.607 18.96C193.655 19.2 193.615 19.464 193.487 19.752L187.487 33.552C187.327 33.92 187.143 34.168 186.935 34.296C186.743 34.424 186.487 34.488 186.167 34.488Z" fill="white"/>
</svg>
