<svg width="200" height="200" viewBox="0 0 200 200" fill="none" xmlns="http://www.w3.org/2000/svg">
<path d="M160.937 0H39.0625C17.4889 0 0 17.4889 0 39.0625V160.938C0 182.511 17.4889 200 39.0625 200H160.937C182.511 200 200 182.511 200 160.938V39.0625C200 17.4889 182.511 0 160.937 0Z" fill="url(#paint0_linear_737_4816)"/>
<path d="M167.805 199.037C184.871 195.098 201.929 179.285 196.659 162.581C196.327 161.53 195.929 160.457 195.456 159.357C190.431 147.691 179.989 137.092 170.704 128.163C161.419 119.234 150.396 112.151 138.265 107.319C126.134 102.487 113.131 100 100 100C86.8694 100 73.867 102.487 61.7357 107.319C49.6043 112.151 38.5814 119.234 29.2965 128.163C20.0115 137.092 9.57058 147.691 4.5456 159.357C3.85424 160.962 3.32464 162.51 2.92537 164.02C-1.33993 180.143 14.4601 195.069 30.6712 198.988V198.988C33.4506 199.66 36.3001 200 39.1596 200H100H159.346C162.193 200 165.031 199.677 167.805 199.037V199.037Z" fill="url(#paint1_linear_737_4816)"/>
<path d="M63.6769 78.0355C69.1751 39.5619 112.56 43.9193 135.376 54.0365C138.057 55.2252 139.218 58.3067 138.249 61.0745L134.948 70.5064C133.39 74.958 127.44 76.0039 123.894 72.8933C108.019 58.9648 88.3054 57.0225 80.8435 72.4444C80.6948 72.7517 80.5731 73.0927 80.493 73.4246C76.0214 91.9514 98.0859 97.6671 110.88 98.5126C150.579 101.584 149.45 131.522 139.928 147.146C121.531 174.79 83.3337 161.656 63.6769 150.985L61.4534 149.436C60.2817 148.619 59.4398 147.411 59.0789 146.03L58.7185 144.65C58.111 142.324 58.9505 139.86 60.8517 138.388L80.6544 123.063C84.0521 120.434 89.042 122.167 90.3317 126.265C104.856 172.418 120.384 149.364 126.411 138.553C126.551 138.303 126.67 138.042 126.767 137.773C134.037 117.629 110.389 111.735 97.5662 111.311C67.55 108.239 62.3058 90.5673 63.6769 78.0355Z" fill="white"/>
<path d="M81.2667 50.8676C80.9662 51.1904 80.5609 51.4044 80.1153 51.4756L64.9333 53.9004C63.5618 54.1195 62.8476 55.5868 63.5334 56.7767L67.2086 63.153C69.5549 67.2238 78.4576 66.8276 87.0927 62.2678C95.7277 57.7079 100.826 50.7104 98.4801 46.6396C98.4614 46.6071 98.4332 46.5798 98.4151 46.5497L94.7948 40.2687C94.109 39.0788 92.4313 38.8745 91.5062 39.8682L81.2667 50.8676Z" fill="white"/>
<path d="M49.5528 52.0084C49.0054 52.6951 49.6002 53.6969 50.4961 53.5976L54.0436 53.204C54.5284 53.1502 54.8711 52.7283 54.8132 52.2565V52.2565C54.7741 51.9378 54.919 51.6276 55.1901 51.4496L56.5876 50.5324C56.6525 50.4898 56.7354 50.4808 56.8098 50.5083V50.5083C56.979 50.5707 57.0261 50.7819 56.8973 50.9012L56.0669 51.6708C55.8258 51.8943 55.7239 52.2252 55.7977 52.5452L55.8328 52.6976C55.878 52.8934 55.8621 53.0935 55.788 53.2785C55.0757 55.0583 51.3461 64.8382 53.713 68.8834C53.8591 69.1332 54.1339 69.2789 54.4273 69.2696C55.3823 69.2393 57.5892 68.9327 58.814 66.8481C58.8921 66.7151 58.9285 66.5619 58.9285 66.4077L58.9274 53.4611C58.9274 53.2916 58.8822 53.1241 58.7962 52.9748L58.7319 52.8634C58.5032 52.4665 58.5789 51.975 58.9157 51.6706L60.9999 49.7864C61.2167 49.5903 61.5763 49.7134 61.6258 50.0005V50.0005C61.6441 50.1065 61.6131 50.214 61.5412 50.294L60.491 51.4629C60.1323 51.8622 60.4809 52.4896 61.0278 52.4286V52.4286L79.3527 49.5006C79.5755 49.465 79.7781 49.358 79.9284 49.1966L92.2883 35.9194L98.9379 28.0163C99.5036 27.3439 98.9354 26.328 98.0366 26.405L68.3384 28.9488C68.0611 28.9726 67.8083 29.1061 67.6394 29.318L49.5528 52.0084Z" fill="white"/>
<defs>
<linearGradient id="paint0_linear_737_4816" x1="90.0003" y1="-43.9394" x2="95.5105" y2="206.086" gradientUnits="userSpaceOnUse">
<stop stop-color="#303F9F"/>
<stop offset="1" stop-color="#1A237E"/>
</linearGradient>
<linearGradient id="paint1_linear_737_4816" x1="100.001" y1="100" x2="92.6787" y2="638.424" gradientUnits="userSpaceOnUse">
<stop stop-color="#232F8C"/>
<stop offset="1" stop-color="#DBE0FF" stop-opacity="0"/>
</linearGradient>
</defs>
</svg>
